<?xml version="1.0" standalone="no"?>
<!DOCTYPE svg PUBLIC "-//W3C//DTD SVG 20010904//EN"
 "http://www.w3.org/TR/2001/REC-SVG-20010904/DTD/svg10.dtd">
<svg version="1.0" xmlns="http://www.w3.org/2000/svg"
 width="1516.000000pt" height="1516.000000pt" viewBox="0 0 1516.000000 1516.000000"
 preserveAspectRatio="xMidYMid meet">
<metadata>
Created by potrace 1.14, written by Peter Selinger 2001-2017
</metadata>
<g transform="translate(0.000000,1516.000000) scale(0.100000,-0.100000)"
fill="#000000" stroke="none">
<path d="M1990 15135 c0 -17 -8 -29 -25 -37 -14 -6 -25 -18 -25 -25 0 -8 -4
-11 -10 -8 -5 3 -10 -1 -10 -10 0 -9 -4 -14 -9 -10 -10 6 -67 -59 -60 -67 2
-3 -2 -12 -10 -22 -8 -9 -11 -19 -8 -23 4 -3 -1 -12 -11 -19 -14 -11 -14 -13
-2 -14 12 0 12 -2 2 -8 -7 -5 -15 -21 -18 -37 -3 -16 -7 -32 -10 -37 -3 -4 0
-8 7 -8 9 0 9 -3 0 -14 -9 -11 -9 -16 0 -22 9 -5 8 -10 -3 -18 -8 -6 -16 -15
-17 -21 -6 -22 -17 -32 -43 -39 -16 -3 -28 -2 -28 2 0 5 -12 8 -27 8 -16 -1
-37 3 -48 8 -24 12 -46 16 -102 19 -24 1 -43 5 -43 8 0 3 -7 6 -15 6 -8 0 -12
-3 -11 -6 2 -3 -21 -6 -52 -7 -36 0 -57 -5 -60 -13 -3 -10 -6 -10 -12 -1 -5 8
-11 7 -24 -5 -9 -9 -16 -13 -16 -8 0 4 -5 0 -11 -9 -5 -10 -17 -18 -24 -18 -8
0 -15 -5 -15 -11 0 -5 -4 -8 -9 -5 -4 3 -17 -10 -27 -29 -10 -19 -25 -35 -34
-36 -8 0 -10 -3 -4 -5 8 -3 5 -18 -9 -47 -11 -23 -20 -50 -19 -59 0 -10 -4
-20 -9 -23 -5 -4 -7 -11 -4 -16 4 -5 2 -9 -4 -9 -6 0 -8 -7 -5 -15 4 -8 1 -21
-5 -29 -6 -7 -8 -16 -4 -19 3 -4 1 -7 -5 -7 -7 0 -12 -7 -12 -15 0 -8 -6 -15
-12 -15 -9 0 -8 -4 2 -10 13 -8 12 -10 -3 -10 -10 0 -15 -5 -12 -10 3 -6 0
-13 -9 -16 -8 -3 -12 -12 -9 -20 3 -8 1 -14 -4 -14 -9 0 -13 -13 -14 -52 0
-10 -4 -18 -10 -18 -5 0 -9 -5 -9 -11 0 -5 4 -7 10 -4 6 3 7 -1 4 -10 -3 -8
-7 -50 -9 -93 -1 -42 -3 -77 -5 -77 -1 0 -3 -9 -4 -20 -6 -45 -18 -85 -26 -85
-4 0 -6 -9 -3 -20 3 -11 1 -26 -4 -33 -5 -6 -9 -24 -8 -39 0 -16 -3 -28 -9
-28 -5 0 -6 -3 -3 -6 3 -4 1 -16 -5 -28 -7 -11 -11 -24 -10 -28 1 -5 -3 -8 -9
-8 -5 0 -7 -4 -4 -10 3 -5 1 -10 -4 -10 -6 0 -11 -7 -11 -16 0 -8 -4 -12 -10
-9 -5 3 -10 0 -10 -7 0 -8 -9 -20 -19 -28 -11 -7 -18 -17 -15 -22 3 -4 -4 -8
-16 -8 -12 0 -19 -4 -16 -8 7 -12 -81 -55 -94 -47 -6 4 -9 1 -8 -6 2 -7 -5
-15 -15 -17 -19 -4 -75 -52 -61 -52 5 0 3 -4 -5 -9 -21 -14 -24 -89 -3 -100 9
-4 23 -6 30 -4 6 3 12 0 12 -5 0 -11 40 -10 58 2 7 4 11 4 10 -1 -2 -4 1 -9 5
-10 15 -3 36 -37 29 -47 -3 -5 2 -7 11 -3 9 3 16 3 16 -1 -1 -4 0 -9 1 -12 5
-13 10 -48 13 -82 1 -20 6 -40 9 -44 4 -4 3 -16 -3 -27 -6 -10 -7 -17 -2 -14
4 3 13 -6 20 -19 6 -13 7 -22 2 -18 -15 9 -10 -6 12 -42 11 -19 18 -38 14 -44
-3 -5 -3 -10 2 -10 4 0 8 -11 8 -25 0 -14 -3 -25 -7 -25 -4 0 -5 -7 -2 -15 4
-8 2 -15 -3 -15 -6 0 -16 -18 -23 -40 -7 -21 -16 -37 -20 -35 -6 4 -10 -10
-11 -47 0 -10 -4 -20 -9 -23 -5 -3 -6 -13 -3 -22 5 -12 3 -14 -7 -8 -9 6 -11
4 -5 -5 4 -7 8 -32 8 -56 0 -26 5 -44 11 -44 6 0 5 -4 -3 -9 -9 -6 -10 -11 -3
-15 6 -4 9 -13 5 -21 -3 -9 0 -22 7 -30 6 -8 9 -19 5 -25 -3 -5 -1 -10 4 -10
6 0 11 -6 11 -13 0 -7 9 -23 20 -35 12 -12 18 -22 15 -22 -3 0 4 -9 15 -20 11
-11 24 -20 29 -20 5 0 13 -9 16 -20 3 -11 13 -20 22 -20 10 0 13 -6 9 -16 -3
-8 -2 -13 2 -11 4 3 16 -7 26 -21 11 -14 14 -22 8 -18 -8 5 -10 2 -6 -8 3 -9
10 -14 15 -11 4 3 6 -4 4 -15 -2 -11 1 -20 6 -20 6 0 8 -4 5 -9 -3 -4 9 -23
26 -42 17 -19 28 -27 24 -19 -4 8 -1 7 8 -4 8 -10 19 -15 25 -12 6 4 19 -2 31
-14 11 -11 20 -15 20 -9 0 7 10 -1 22 -17 13 -16 22 -39 22 -51 -1 -13 3 -23
7 -23 5 0 8 -6 7 -12 -2 -7 3 -12 10 -10 6 1 12 -3 12 -9 0 -8 5 -8 15 1 8 7
15 9 15 6 0 -4 14 8 30 26 17 18 30 38 30 45 0 7 5 13 10 13 6 0 9 3 8 8 -4
17 24 92 33 87 5 -4 9 -3 8 2 -3 20 2 34 11 28 6 -3 7 1 4 9 -4 11 0 16 10 16
9 0 16 5 16 10 0 7 6 7 19 1 10 -6 21 -7 25 -4 3 3 6 -3 6 -15 0 -12 4 -21 9
-20 5 2 8 0 7 -3 0 -4 7 -16 17 -26 9 -11 14 -23 10 -26 -3 -4 -1 -7 6 -7 7 0
10 -4 6 -9 -3 -5 2 -16 10 -24 8 -9 15 -23 15 -31 0 -9 7 -16 15 -16 8 0 15
-4 15 -8 0 -16 37 -52 45 -44 5 4 5 1 1 -6 -5 -8 0 -20 11 -30 29 -26 59 -93
57 -125 -2 -15 1 -25 7 -22 5 4 5 -3 0 -18 -6 -14 -6 -29 0 -38 11 -17 12 -32
2 -26 -9 6 -9 -110 0 -119 4 -4 2 -15 -4 -25 -5 -11 -6 -19 -1 -19 11 0 9 -40
-2 -59 -6 -9 -5 -12 1 -8 6 4 13 -6 15 -23 3 -17 1 -30 -3 -30 -4 0 -4 -15 0
-32 4 -18 7 -59 6 -90 0 -34 4 -58 10 -58 5 0 3 -5 -5 -10 -8 -5 -10 -10 -5
-10 6 0 11 -9 12 -20 1 -13 -2 -18 -10 -13 -7 4 -6 -1 2 -10 8 -10 11 -20 8
-23 -3 -3 -2 -18 3 -33 4 -16 3 -35 -3 -46 -8 -15 -7 -17 6 -12 13 5 15 2 7
-18 -5 -14 -6 -25 -2 -25 4 0 8 -8 9 -17 2 -18 9 -57 20 -103 3 -14 5 -33 5
-42 0 -10 4 -18 10 -18 7 0 7 -4 -1 -13 -6 -8 -7 -17 -3 -21 7 -8 11 -49 12
-126 0 -74 -1 -82 -11 -103 -9 -15 -8 -18 3 -11 11 6 11 5 -1 -9 -7 -9 -10
-17 -7 -17 4 0 2 -9 -4 -19 -7 -14 -6 -21 3 -24 9 -4 8 -6 -2 -6 -10 -1 -11
-4 -2 -15 8 -10 9 -16 1 -21 -6 -3 -8 -11 -5 -16 4 -5 1 -9 -5 -9 -6 0 -8 -5
-5 -10 4 -6 12 -7 18 -3 9 5 9 3 0 -8 -7 -8 -10 -31 -8 -52 1 -20 0 -37 -3
-37 -4 0 -6 -19 -5 -42 0 -24 -3 -51 -9 -62 -7 -13 -7 -16 1 -11 8 5 10 -2 4
-22 -4 -15 -7 -40 -7 -55 -1 -16 -3 -28 -6 -28 -5 0 -11 -34 -12 -70 -1 -8 -5
-21 -11 -27 -6 -9 -5 -13 4 -13 10 0 11 -2 2 -8 -6 -4 -10 -21 -9 -39 1 -17
-2 -30 -6 -27 -4 3 -8 -5 -8 -18 0 -13 -6 -30 -12 -37 -11 -11 -10 -12 1 -6
10 6 11 2 5 -16 -4 -13 -8 -37 -9 -54 -1 -16 -3 -32 -5 -35 -2 -5 -1 -27 5
-95 1 -16 -2 -38 -7 -49 -6 -11 -6 -16 -1 -13 6 4 11 -6 11 -21 2 -36 6 -55
15 -69 4 -6 1 -14 -5 -16 -10 -4 -10 -6 0 -6 7 -1 10 -5 7 -11 -3 -5 -2 -10 3
-10 6 0 8 -9 5 -20 -3 -11 -1 -20 5 -20 6 0 9 -9 7 -20 -2 -11 1 -22 6 -25 13
-9 40 -75 34 -85 -3 -5 -1 -11 5 -15 6 -4 8 -11 5 -16 -4 -5 -2 -9 3 -9 5 0 9
-6 9 -12 0 -7 7 -37 16 -65 9 -29 13 -53 10 -53 -3 0 0 -6 6 -14 7 -9 8 -17 2
-20 -5 -3 -8 -17 -6 -31 1 -14 -1 -25 -5 -25 -4 0 -5 -12 -2 -26 3 -18 0 -30
-12 -36 -14 -8 -15 -13 -5 -24 9 -11 8 -14 -5 -14 -10 0 -15 -4 -12 -9 3 -5
-1 -12 -10 -15 -9 -3 -12 -11 -8 -18 4 -7 4 -10 0 -6 -5 4 -25 -2 -44 -13 -20
-10 -43 -19 -50 -19 -7 0 -10 -4 -7 -10 3 -5 0 -7 -8 -4 -8 3 -21 -1 -28 -9
-8 -7 -20 -12 -27 -9 -6 2 -12 -2 -12 -9 0 -7 -3 -9 -7 -6 -3 4 -12 -1 -19
-11 -7 -9 -16 -17 -21 -17 -16 0 -93 -85 -93 -103 0 -13 -2 -14 -9 -4 -6 10
-10 8 -14 -10 -4 -12 -6 -25 -6 -27 1 -2 -6 -8 -15 -13 -9 -5 -16 -16 -16 -24
0 -9 -5 -12 -12 -8 -7 5 -9 2 -5 -9 3 -8 -1 -21 -8 -27 -8 -7 -12 -16 -9 -21
3 -5 0 -9 -6 -9 -6 0 -8 -4 -5 -10 3 -5 1 -10 -4 -10 -6 0 -10 -3 -10 -7 3
-19 -2 -34 -9 -29 -5 3 -8 -9 -7 -27 0 -18 -3 -35 -8 -38 -8 -6 -18 -42 -20
-71 -1 -10 -5 -18 -10 -18 -4 0 -5 -4 -2 -10 3 -5 1 -10 -4 -10 -6 0 -10 -3
-9 -7 4 -17 -27 -83 -39 -83 -7 0 -13 -7 -13 -16 0 -8 -4 -12 -10 -9 -5 3 -10
1 -10 -4 0 -6 -6 -11 -14 -11 -8 0 -16 -7 -20 -15 -3 -8 -14 -15 -23 -15 -10
0 -26 -8 -35 -17 -9 -10 -37 -36 -62 -58 -25 -22 -46 -46 -46 -53 0 -7 -7 -15
-15 -18 -8 -4 -12 -10 -9 -15 3 -5 0 -9 -6 -9 -6 0 -8 -5 -5 -10 3 -6 1 -10
-6 -10 -7 0 -9 -3 -6 -7 4 -3 0 -11 -9 -17 -8 -6 -16 -21 -17 -34 0 -12 -4
-22 -8 -22 -8 0 -22 -40 -20 -57 1 -7 -4 -13 -10 -13 -7 0 -10 -3 -6 -6 3 -3
1 -18 -4 -32 -13 -35 -25 -125 -33 -259 0 -13 -4 -23 -7 -23 -4 0 -10 -7 -13
-16 -3 -8 -2 -12 4 -9 6 4 5 -5 -1 -19 -7 -14 -16 -23 -20 -20 -5 3 -6 -2 -3
-11 4 -8 1 -21 -5 -29 -7 -8 -11 -18 -10 -22 3 -14 -25 -74 -33 -74 -4 0 -8
-9 -8 -20 0 -11 -6 -20 -12 -20 -9 0 -8 -4 2 -10 8 -5 10 -10 3 -10 -6 0 -14
-18 -18 -40 -4 -27 -11 -38 -18 -33 -7 4 -6 -1 2 -10 11 -14 11 -18 -1 -22 -8
-3 -15 -18 -16 -33 -2 -38 -8 -63 -20 -92 -11 -29 -62 -90 -62 -76 0 6 -7 1
-15 -10 -8 -10 -15 -16 -15 -11 0 4 -9 -1 -19 -10 -34 -32 -51 -44 -51 -38 0
2 -9 -3 -19 -12 -11 -9 -17 -22 -14 -30 4 -9 0 -11 -13 -6 -11 4 -15 3 -11 -4
4 -6 -5 -26 -20 -44 -16 -18 -21 -29 -13 -24 11 6 10 3 -2 -12 -10 -11 -18
-25 -18 -31 0 -7 -4 -12 -9 -12 -4 0 -7 -11 -6 -25 2 -14 -1 -23 -6 -19 -5 3
-9 -4 -9 -15 0 -10 -6 -22 -13 -24 -9 -4 -8 -6 2 -6 11 -1 11 -4 1 -16 -7 -8
-10 -22 -6 -30 3 -9 2 -13 -4 -10 -10 6 -12 -13 -13 -112 -1 -26 -5 -39 -12
-35 -5 3 -4 -2 4 -11 7 -9 9 -17 4 -17 -5 0 -8 -18 -7 -40 1 -22 -3 -43 -8
-46 -5 -3 -4 -12 3 -20 6 -8 7 -14 2 -14 -5 0 -9 -10 -10 -22 -2 -51 -8 -78
-16 -78 -5 0 -7 -7 -3 -15 3 -8 1 -15 -5 -15 -6 0 -8 -4 -4 -9 3 -5 0 -13 -6
-16 -5 -4 -8 -13 -5 -21 3 -8 2 -13 -2 -11 -4 1 -7 -1 -7 -4 0 -4 -8 -16 -18
-26 -9 -11 -14 -23 -10 -26 3 -4 -1 -7 -10 -7 -9 0 -17 -4 -17 -10 0 -9 -6
-18 -52 -72 -10 -11 -15 -24 -13 -29 3 -4 0 -11 -6 -15 -8 -5 -9 -3 -4 6 5 9
4 11 -3 6 -7 -4 -12 -14 -12 -22 0 -8 -4 -12 -10 -9 -5 3 -10 1 -10 -5 0 -6
-5 -8 -11 -5 -7 5 -9 -43 -7 -158 2 -128 6 -163 16 -160 10 4 10 9 1 19 -10
12 -9 13 5 8 10 -4 15 -12 12 -19 -2 -7 1 -18 7 -25 9 -10 9 -11 0 -6 -7 4
-13 3 -13 -3 0 -5 5 -11 12 -13 6 -2 13 -21 14 -41 1 -24 -2 -35 -10 -30 -6 3
-5 0 1 -8 7 -7 13 -20 13 -28 0 -14 -1 -14 -10 -1 -6 9 -10 10 -10 3 0 -6 6
-18 13 -25 8 -7 13 -26 13 -41 -1 -16 2 -31 6 -33 4 -3 4 -15 0 -27 -5 -12 -7
-32 -6 -44 0 -13 -2 -23 -5 -23 -4 0 -7 -8 -8 -19 -1 -10 -13 -30 -28 -45 -26
-26 -26 -27 -24 -171 0 -85 5 -145 11 -145 5 0 6 -6 2 -12 -5 -8 0 -7 11 2 11
9 16 10 11 3 -4 -8 -2 -13 6 -13 8 0 9 -3 3 -8 -5 -4 -11 -13 -13 -21 -2 -11
0 -12 11 -3 11 9 13 3 10 -34 -2 -30 0 -43 7 -39 14 9 13 -8 -2 -23 -8 -8 -8
-12 -1 -12 6 0 10 -13 9 -29 -1 -17 2 -27 8 -24 5 4 7 -3 4 -15 -4 -12 -2 -25
3 -28 5 -3 9 -14 9 -25 0 -10 4 -19 8 -19 4 0 8 -10 9 -22 1 -11 8 -25 15 -29
10 -7 10 -9 -2 -9 -9 0 -11 -3 -5 -8 11 -7 40 -91 37 -104 -1 -5 2 -8 7 -8 5
0 12 -17 16 -37 5 -21 10 -47 13 -58 2 -11 5 -30 5 -42 1 -13 5 -23 9 -23 4 0
8 -8 8 -18 0 -10 8 -28 17 -41 12 -18 13 -22 2 -16 -9 6 -8 2 3 -11 9 -10 17
-22 17 -27 -1 -26 14 -67 24 -67 7 0 6 -4 -3 -10 -9 -6 -10 -10 -3 -10 6 0 19
-20 29 -45 9 -25 20 -45 23 -45 3 0 12 -9 19 -21 8 -12 9 -18 3 -14 -19 11
-12 -10 8 -25 11 -7 18 -17 15 -22 -3 -4 2 -8 11 -8 9 0 14 -4 11 -9 -7 -10
73 -77 86 -73 5 1 7 -1 5 -5 -3 -5 1 -14 9 -21 8 -7 14 -10 14 -6 0 4 9 -3 20
-16 11 -13 20 -19 20 -15 0 4 11 -5 25 -21 14 -16 25 -33 25 -37 0 -5 5 -5 10
-2 6 3 10 -3 10 -14 0 -12 5 -21 11 -21 5 0 8 -4 5 -9 -3 -5 1 -11 9 -15 8 -3
15 -12 15 -21 0 -26 34 -95 47 -95 7 0 13 -5 13 -10 0 -17 51 -60 63 -53 6 3
7 1 3 -5 -4 -7 -1 -12 9 -12 9 0 13 -4 10 -10 -3 -5 1 -10 9 -10 9 0 16 -4 16
-10 0 -5 7 -10 15 -10 8 0 15 -5 15 -11 0 -6 9 -9 20 -6 11 3 18 2 15 -3 -9
-14 78 -39 156 -45 14 -1 31 -5 38 -9 6 -4 19 -2 28 6 9 7 14 8 10 2 -5 -8 5
-12 29 -12 20 0 40 -6 45 -14 5 -7 9 -9 9 -5 0 4 9 3 20 -3 11 -6 18 -15 15
-21 -4 -5 -2 -9 4 -9 10 0 9 -19 -2 -37 -5 -8 -3 -13 5 -13 8 0 9 -3 2 -8 -23
-16 -63 -112 -66 -159 -1 -7 -5 -13 -9 -13 -4 0 -6 -8 -4 -17 1 -10 -3 -24 -9
-32 -9 -12 -8 -13 4 -6 12 7 13 6 3 -7 -7 -8 -10 -18 -6 -21 3 -4 2 -7 -4 -7
-5 0 -7 -14 -5 -31 4 -25 2 -30 -9 -24 -11 7 -12 6 -4 -6 6 -8 10 -43 9 -79 0
-36 3 -73 8 -82 5 -11 4 -19 -4 -24 -7 -5 -8 -3 -3 6 6 9 4 11 -5 5 -10 -6 -9
-11 4 -21 9 -6 12 -14 7 -15 -7 -3 -6 -13 3 -31 10 -19 11 -29 3 -37 -7 -7 -7
-11 -1 -11 6 0 11 -6 12 -12 0 -7 4 -26 8 -43 3 -16 6 -38 6 -47 0 -10 3 -18
8 -18 5 0 7 -7 4 -15 -3 -8 1 -24 9 -36 9 -12 13 -28 10 -37 -4 -10 -2 -13 5
-8 8 5 12 0 12 -13 0 -11 5 -23 10 -26 6 -4 8 -10 5 -15 -3 -5 2 -16 11 -24 8
-9 12 -16 8 -16 -3 0 -1 -7 6 -15 7 -8 9 -15 6 -15 -4 0 2 -9 13 -21 11 -12
18 -30 16 -40 -2 -11 0 -17 6 -13 6 3 13 -3 16 -15 3 -12 9 -21 14 -21 5 0 9
-6 9 -14 0 -7 7 -19 15 -26 9 -7 13 -15 11 -17 -2 -3 4 -14 14 -26 11 -12 20
-26 22 -32 4 -17 23 -33 32 -27 5 3 6 0 3 -5 -4 -6 0 -16 8 -23 8 -7 15 -19
15 -27 0 -8 4 -11 10 -8 9 5 14 -7 11 -27 0 -4 8 -10 19 -13 11 -4 20 -13 20
-21 0 -7 9 -19 20 -26 11 -7 20 -17 20 -22 0 -5 13 -22 30 -38 16 -15 30 -30
30 -33 0 -9 82 -85 92 -85 6 0 9 -3 5 -6 -6 -6 62 -74 75 -74 4 0 10 -9 13
-20 3 -11 13 -20 21 -20 8 0 12 -4 9 -10 -3 -5 1 -10 10 -10 9 0 13 -4 10 -10
-3 -5 1 -10 9 -10 9 0 16 -4 16 -9 0 -14 52 -61 61 -55 5 3 6 -2 3 -10 -3 -9
-2 -16 2 -16 14 0 74 -57 74 -69 0 -7 4 -10 8 -7 5 3 14 -4 22 -14 8 -10 17
-17 22 -14 4 3 8 -2 8 -10 0 -9 5 -16 11 -16 7 0 22 -10 34 -23 32 -33 64 -57
75 -57 6 0 10 -4 10 -10 0 -5 6 -10 14 -10 8 0 17 -7 20 -16 3 -8 10 -13 15
-9 6 3 13 -1 18 -9 4 -8 15 -16 23 -18 8 -2 23 -11 32 -21 9 -10 18 -17 20
-16 7 5 48 -13 48 -22 0 -5 9 -9 20 -9 11 0 20 -4 20 -10 0 -5 7 -10 15 -10 8
0 15 -6 15 -12 0 -10 3 -9 9 1 7 11 11 10 19 -5 6 -11 13 -18 16 -16 14 6 27
1 21 -8 -3 -6 1 -7 9 -4 9 3 16 2 16 -4 0 -8 26 -20 40 -18 3 1 19 -14 36 -31
17 -18 35 -29 39 -25 5 4 5 2 2 -5 -4 -6 4 -20 18 -31 14 -11 25 -25 25 -31 0
-6 7 -11 17 -11 9 0 14 -3 10 -6 -8 -8 18 -34 33 -34 6 0 9 -4 6 -8 -5 -9 88
-112 101 -112 5 0 17 -11 27 -25 10 -14 23 -25 29 -25 5 0 20 -11 33 -26 14
-14 24 -19 24 -12 0 8 4 6 11 -4 5 -10 26 -25 47 -35 20 -9 40 -22 44 -27 4
-6 8 -7 8 -2 0 5 9 -1 20 -14 11 -13 20 -18 20 -11 0 8 5 7 16 -3 8 -9 23 -16
32 -16 9 0 26 -7 36 -15 11 -8 30 -15 44 -15 13 0 20 -4 17 -10 -3 -6 1 -7 10
-4 8 4 23 0 32 -7 12 -10 15 -10 9 -2 -4 7 -2 13 3 13 6 0 11 -4 11 -8 0 -5 6
-9 13 -10 6 -1 28 -3 47 -6 19 -2 35 -5 35 -6 0 -4 44 -10 93 -12 28 -2 52 -5
52 -8 0 -3 30 -6 68 -6 100 -2 148 -9 166 -23 9 -8 16 -10 16 -7 0 8 21 -9 55
-44 14 -14 25 -21 25 -17 0 4 6 2 14 -5 8 -7 11 -17 8 -22 -3 -5 0 -6 7 -2 6
4 14 0 17 -8 3 -9 10 -14 14 -11 4 3 11 -2 14 -11 3 -8 10 -12 16 -9 5 3 10 1
10 -5 0 -7 6 -10 14 -7 8 3 16 3 18 -1 5 -12 177 -92 197 -92 7 0 10 -4 6 -9
-3 -5 2 -17 11 -25 13 -14 58 -16 350 -16 221 0 333 3 329 10 -3 5 -2 10 4 10
6 0 7 8 4 17 -5 12 -2 15 10 10 11 -4 17 -1 17 7 0 7 18 19 40 26 22 7 40 18
40 23 0 5 9 7 20 4 13 -3 20 0 20 9 0 8 6 11 15 8 8 -4 15 -1 15 6 0 6 5 8 10
5 6 -3 13 0 16 9 3 9 12 12 21 9 9 -4 14 -2 11 3 -4 5 16 20 42 33 27 14 47
28 45 32 -5 6 32 22 47 20 4 0 10 8 13 19 4 11 11 18 16 14 6 -3 21 6 34 20
13 14 29 26 35 26 6 0 8 5 5 10 -3 6 2 10 12 10 10 0 25 9 33 20 8 11 18 20
23 20 4 0 21 14 37 30 17 17 30 28 30 24 0 -4 10 5 23 19 12 15 29 27 37 27
13 0 13 2 0 10 -14 9 -13 11 11 14 6 0 16 11 22 23 7 12 15 22 20 22 4 1 7 3
7 6 -1 3 17 23 40 45 22 21 40 43 40 49 0 6 5 11 12 11 6 0 9 3 5 6 -3 4 4 15
16 25 12 10 18 18 12 19 -5 0 1 7 13 16 12 8 20 20 17 25 -4 5 -1 9 4 9 6 0
11 7 11 16 0 8 5 12 10 9 9 -6 14 8 11 28 0 4 5 7 13 7 9 0 13 7 11 20 -2 12
3 21 16 25 12 4 18 13 15 21 -3 8 -1 14 5 14 6 0 8 4 4 9 -3 6 3 14 12 20 10
6 14 11 10 11 -5 0 2 19 16 43 14 23 26 45 26 49 2 13 13 40 37 95 12 28 20
54 16 57 -3 3 0 6 5 6 6 0 10 8 8 18 -1 9 4 27 11 40 11 17 12 22 2 22 -10 0
-10 2 0 9 7 4 14 14 15 22 2 8 6 20 10 27 5 7 3 12 -5 12 -9 0 -10 2 -2 8 7 4
14 21 15 37 2 17 8 33 14 37 6 5 5 8 -3 8 -7 0 -10 5 -6 11 6 11 11 49 19 139
2 25 4 46 5 48 7 7 4 28 -5 34 -7 5 -7 8 0 8 13 0 14 139 1 159 -6 9 -5 12 1
8 6 -4 10 9 9 33 0 22 -5 40 -10 40 -5 0 -3 6 3 14 7 9 8 17 2 20 -5 3 -8 14
-6 24 1 9 -3 23 -9 31 -7 10 -7 13 0 8 6 -3 11 0 11 8 0 8 -5 11 -10 8 -5 -3
-7 0 -5 8 3 8 1 22 -4 32 -6 12 -5 17 4 17 8 0 9 3 3 8 -9 6 -14 18 -19 47 -1
6 -6 16 -10 24 -6 10 -5 12 3 7 6 -4 2 9 -9 28 -11 20 -17 36 -15 36 3 0 -4
16 -15 37 -10 20 -17 40 -14 45 3 4 0 8 -6 8 -6 0 -9 4 -5 9 3 6 -3 14 -12 20
-10 6 -15 11 -11 11 4 0 1 12 -7 27 -8 15 -12 30 -9 35 3 4 1 8 -5 8 -5 0 -8
9 -6 20 2 11 -2 20 -8 20 -8 0 -8 3 1 9 8 4 13 11 12 15 0 3 4 14 9 24 6 9 11
13 11 7 0 -5 5 -3 10 5 6 11 29 15 80 16 38 1 68 -1 65 -5 -2 -4 11 -14 30
-21 19 -8 35 -17 35 -22 0 -4 7 -8 17 -8 9 0 13 -3 10 -7 -9 -8 40 -33 70 -35
12 -1 23 -7 23 -12 0 -5 3 -6 7 -3 3 4 12 2 20 -4 10 -9 13 -8 13 1 0 10 5 9
18 -3 13 -12 22 -13 36 -5 14 8 17 7 12 -1 -7 -10 45 -17 97 -13 11 1 15 -2
11 -9 -4 -8 0 -8 15 0 11 7 21 8 21 3 0 -5 7 -9 15 -9 8 0 15 5 15 10 0 5 8 3
17 -4 11 -9 14 -10 9 -2 -5 9 1 12 23 9 17 -2 31 1 31 6 0 6 7 8 15 5 8 -4 17
-2 21 4 4 6 12 5 22 -3 12 -10 14 -10 8 0 -6 11 18 18 47 13 4 0 7 4 7 10 0 5
4 8 9 4 5 -3 12 -1 15 4 3 5 15 7 26 4 12 -3 20 0 20 6 0 7 5 9 10 6 6 -3 10
-1 10 4 0 6 3 10 8 9 14 -4 52 14 47 22 -3 4 3 7 12 6 10 -2 23 2 30 8 36 32
44 36 55 30 7 -4 8 -3 4 4 -4 7 -1 12 8 12 8 0 19 6 23 13 10 17 98 77 113 77
6 0 8 6 4 13 -6 9 -4 10 7 0 7 -7 23 -13 35 -13 12 0 25 -7 28 -16 3 -8 10
-13 15 -10 9 6 93 -33 99 -46 2 -4 10 -4 19 -1 11 4 14 2 9 -5 -4 -7 1 -10 14
-7 11 2 22 -1 25 -6 4 -5 11 -7 16 -4 5 4 9 2 9 -4 0 -6 7 -8 15 -5 8 4 15 1
15 -5 0 -6 5 -11 11 -11 5 0 7 6 3 13 -4 6 1 4 12 -5 10 -9 22 -17 27 -17 4
-1 8 -1 10 -2 11 -3 64 -15 104 -23 12 -3 31 -10 43 -16 12 -6 28 -9 36 -6 8
3 14 -1 14 -10 0 -8 5 -12 10 -9 6 4 18 1 27 -7 12 -9 15 -9 9 0 -4 6 -2 12 3
12 6 0 11 -5 11 -11 0 -5 4 -7 10 -4 5 3 10 1 10 -5 0 -6 4 -8 10 -5 5 3 10 1
10 -5 0 -6 4 -9 10 -5 5 3 18 -3 30 -15 12 -12 20 -15 20 -7 0 9 3 8 9 -2 5
-7 14 -10 20 -7 6 4 11 3 11 -3 0 -11 56 -41 77 -41 7 0 13 -4 13 -10 0 -5 7
-10 15 -10 8 0 15 -5 15 -11 0 -5 4 -8 9 -4 5 3 15 0 23 -7 7 -7 20 -14 28
-16 8 -2 17 -8 18 -13 2 -5 12 -9 23 -9 10 0 19 -5 19 -11 0 -5 5 -7 10 -4 6
3 10 1 10 -5 0 -6 4 -8 10 -5 5 3 10 2 10 -3 0 -9 37 -25 53 -23 4 1 7 -4 7
-10 0 -5 5 -7 10 -4 5 3 10 1 10 -4 0 -6 3 -10 8 -9 4 1 17 -3 30 -10 12 -7
26 -10 31 -7 5 3 11 0 13 -5 2 -6 10 -12 18 -14 24 -4 103 -27 128 -37 16 -6
21 -6 17 2 -5 7 -1 7 14 0 12 -6 30 -16 41 -21 13 -7 20 -7 20 0 0 6 9 6 23 1
12 -4 42 -9 66 -10 25 0 48 -6 52 -12 4 -8 8 -7 11 2 4 11 8 12 20 2 8 -7 18
-10 22 -6 9 9 56 12 56 4 0 -4 9 -7 20 -7 11 0 20 3 20 6 0 9 44 7 50 -2 3 -4
22 -3 43 1 24 6 37 5 37 -1 0 -6 6 -5 15 2 8 7 15 9 15 5 0 -4 6 -2 14 4 10 9
16 7 27 -5 12 -14 14 -14 26 2 8 10 13 13 13 5 0 -7 5 -9 11 -5 7 4 32 8 58
10 73 5 113 13 129 26 13 11 14 11 8 -1 -6 -8 0 -7 18 4 14 10 26 14 26 10 0
-4 6 -2 13 4 8 6 17 8 20 4 4 -3 13 0 22 7 8 7 15 9 15 5 0 -4 8 -1 17 6 14
12 16 12 8 0 -5 -8 6 -5 23 8 18 12 36 19 42 16 5 -3 10 -1 10 4 0 6 9 11 21
11 11 0 18 4 15 9 -4 5 2 8 11 6 10 -1 23 1 28 5 6 3 24 12 40 18 17 6 44 17
60 23 17 7 33 13 38 14 4 2 9 4 12 5 3 1 10 3 15 4 6 0 15 8 20 16 9 13 10 13
10 0 0 -12 2 -12 9 -2 4 7 18 14 29 15 12 1 22 4 22 8 0 3 14 5 30 4 16 -1 30
2 30 6 0 4 8 6 17 5 10 -2 32 0 50 5 22 5 33 3 33 -5 0 -7 3 -6 9 2 12 19 15
19 36 2 11 -8 16 -10 12 -3 -5 8 14 11 69 12 46 0 83 6 92 13 13 11 14 11 7
-2 -8 -13 -6 -13 8 -2 9 8 21 11 27 7 5 -3 10 -2 10 4 0 5 9 8 20 6 11 -2 22
0 25 5 3 4 14 6 25 3 11 -3 20 -1 20 5 0 6 11 9 25 7 14 -1 25 2 25 6 0 5 7 9
16 9 8 0 12 5 9 10 -4 6 -3 10 2 9 4 -1 25 1 46 6 29 6 35 10 25 17 -9 7 -7 8
8 5 14 -3 31 4 48 20 14 13 26 21 26 18 0 -9 63 36 73 52 4 7 15 13 22 13 8 0
15 4 15 8 0 4 20 29 45 55 24 26 42 47 39 47 -3 0 5 10 16 22 11 12 18 28 16
34 -3 7 1 14 7 17 14 5 60 89 64 115 1 9 7 18 13 20 5 2 8 8 4 13 -3 5 0 9 6
9 6 0 8 5 5 10 -3 6 -1 10 5 10 6 0 8 5 5 10 -3 6 1 13 9 16 9 3 13 10 10 15
-3 5 0 9 6 9 6 0 9 4 5 9 -3 5 1 15 8 23 7 7 22 29 33 48 10 19 24 38 29 42 6
4 10 12 10 18 0 6 7 15 15 20 8 5 11 10 6 10 -6 0 -2 6 8 13 9 7 19 21 20 32
2 11 9 19 15 18 10 -3 15 10 12 30 0 4 4 7 9 7 6 0 10 5 10 11 0 6 9 24 21 40
11 16 17 29 14 29 -3 0 3 14 15 31 12 16 19 33 16 36 -3 4 1 15 11 25 9 10 11
18 5 18 -12 0 7 60 23 72 6 5 5 8 -2 8 -13 0 -13 26 0 47 5 8 3 13 -4 13 -7 0
-5 9 6 26 9 15 13 24 7 20 -6 -4 -9 9 -9 34 1 22 7 40 12 40 6 0 1 7 -9 15
-11 8 -15 15 -9 15 15 0 24 38 11 47 -7 4 -8 1 -3 -7 5 -9 4 -11 -3 -6 -9 5
-7 15 6 34 9 14 11 23 5 19 -17 -10 -17 5 0 22 8 9 8 12 0 7 -8 -4 -11 5 -9
29 2 20 0 38 -4 40 -5 3 -7 17 -5 33 2 15 -2 33 -7 40 -7 8 -7 12 2 12 10 0
10 3 1 14 -8 10 -9 16 -1 21 6 3 7 12 3 18 -9 15 -4 58 8 73 5 6 6 14 2 17 -3
4 -1 7 5 7 7 0 12 6 12 13 0 7 11 21 25 31 13 10 22 22 19 27 -3 5 0 9 6 9 6
0 8 5 5 10 -3 6 -2 10 3 10 9 0 27 47 24 63 -1 4 3 7 9 7 5 0 8 4 4 9 -3 5 -1
12 5 16 6 4 8 11 5 16 -4 5 -1 9 5 9 6 0 8 5 5 10 -3 6 1 10 9 10 9 0 13 6 10
14 -6 15 20 26 74 32 21 3 31 1 27 -6 -3 -5 1 -10 9 -10 9 0 16 -6 16 -12 0
-10 2 -10 9 0 7 11 9 11 14 -2 4 -9 16 -16 27 -16 12 0 33 -12 47 -28 15 -15
23 -21 19 -14 -4 6 -2 12 3 12 6 0 11 -4 11 -10 0 -5 8 -10 18 -10 10 0 37 -9
60 -20 24 -12 46 -19 51 -16 4 3 20 -1 35 -9 18 -10 24 -10 19 -2 -5 9 -4 9 8
0 8 -6 26 -14 39 -16 49 -9 70 -19 63 -31 -4 -6 1 -5 10 3 9 7 17 9 17 4 0 -5
22 -15 50 -23 27 -7 47 -16 45 -20 -2 -3 6 -7 18 -7 12 -1 23 -7 25 -13 2 -5
8 -8 13 -4 5 3 9 0 9 -7 0 -7 3 -9 6 -6 4 3 16 1 28 -5 11 -7 24 -11 29 -10 4
1 7 -3 7 -9 0 -5 4 -7 10 -4 6 3 10 1 10 -5 0 -6 20 -20 45 -31 25 -11 45 -24
45 -30 0 -6 5 -7 11 -3 6 3 14 2 18 -4 4 -6 21 -12 39 -14 18 -1 32 -6 32 -11
0 -5 7 -4 16 4 12 10 17 10 23 0 10 -16 22 -16 32 1 5 7 9 8 9 2 0 -6 14 -10
30 -10 17 0 30 4 30 9 0 5 6 4 14 -2 8 -7 17 -8 20 -3 3 5 22 9 43 10 23 1 40
8 46 18 8 13 11 14 18 3 6 -10 9 -11 9 -1 0 6 7 12 15 12 8 0 15 4 15 10 0 5
3 10 8 9 15 -2 52 14 52 23 0 6 7 7 16 4 8 -3 13 -2 10 3 -6 9 22 26 37 23 4
-1 7 3 7 8 0 6 7 10 15 10 8 0 15 4 15 8 0 8 65 36 85 37 6 0 16 4 23 9 7 4
16 5 19 2 4 -3 17 1 31 10 13 9 21 11 18 5 -8 -12 16 -15 28 -4 10 11 156 11
163 0 3 -5 9 -3 14 4 8 12 11 11 19 -1 7 -11 12 -12 21 -3 8 8 16 9 29 1 10
-7 25 -8 36 -3 30 12 54 13 54 1 0 -6 7 -2 15 8 8 11 15 16 15 11 0 -4 10 0
22 11 12 10 18 13 14 7 -10 -18 2 -16 21 3 13 13 17 13 24 2 7 -10 9 -10 9 0
0 6 7 12 16 12 8 0 13 4 9 9 -3 6 4 8 15 6 11 -2 20 0 20 4 0 10 49 25 69 22
7 -1 10 2 6 8 -4 7 4 11 20 11 15 0 24 4 20 10 -3 5 0 7 8 4 8 -3 21 1 28 9 8
7 20 12 27 9 6 -2 12 0 12 5 0 5 8 10 18 11 49 5 66 10 70 20 2 7 8 12 13 12
6 0 8 -4 5 -9 -4 -5 11 -1 31 9 21 10 41 16 45 13 5 -2 8 1 8 6 0 6 3 10 8 10
24 -4 62 2 58 10 -3 4 6 6 19 3 15 -2 25 0 25 7 0 7 5 9 10 6 6 -3 10 -1 10 4
0 6 3 10 8 9 18 -5 82 24 75 35 -3 7 -2 9 2 4 5 -4 19 0 32 8 13 9 23 13 23
11 0 -5 45 32 62 51 55 60 68 75 68 83 0 6 5 10 10 10 6 0 10 7 10 15 0 9 7
18 15 21 8 4 13 10 10 14 -3 5 2 15 10 24 9 8 15 18 14 21 -2 10 23 65 31 65
4 0 6 13 5 30 -1 17 2 27 8 23 6 -4 8 2 5 15 -4 12 -2 22 4 22 6 0 8 7 4 15
-3 8 -2 15 2 15 4 0 9 10 9 22 1 13 6 32 12 43 13 27 25 75 25 103 0 12 3 22
6 22 4 0 7 6 7 13 2 33 15 82 24 85 6 3 5 9 -2 18 -6 8 -7 14 -3 14 5 0 15 9
22 21 8 12 9 18 4 15 -6 -3 1 18 15 46 14 29 26 59 26 66 0 6 7 12 16 13 11 0
12 2 3 6 -9 4 -10 8 -2 18 6 7 10 17 9 21 -1 5 1 17 4 27 4 9 10 25 14 35 3 9
5 23 4 30 -1 6 2 12 7 12 12 0 25 38 22 68 -1 12 2 22 7 22 5 0 10 10 10 22 1
13 6 24 11 26 6 2 7 12 4 24 -4 16 -2 19 9 13 12 -7 12 -6 1 7 -9 11 -9 18 -3
23 6 3 10 16 9 28 -1 29 5 50 17 59 6 5 5 8 -4 8 -10 0 -11 3 -2 14 9 11 9 15
-1 19 -8 3 -6 6 5 6 13 1 17 6 12 20 -3 11 -1 23 6 26 8 6 8 10 -2 15 -10 7
-10 12 -1 22 6 8 10 34 9 60 -1 33 1 44 11 41 18 -7 15 8 -5 22 -13 9 -13 14
-3 20 9 6 11 4 5 -6 -7 -12 -5 -12 6 -1 12 11 12 14 0 21 -8 5 -11 16 -8 24 3
8 3 18 0 21 -13 12 -9 56 5 56 7 0 10 5 7 10 -4 6 -11 7 -17 4 -7 -5 -9 -1 -5
9 4 10 1 17 -6 17 -8 0 -6 4 3 10 10 6 11 10 3 10 -7 0 -13 9 -13 19 0 11 -4
21 -10 23 -5 2 -11 15 -12 31 -1 15 -5 27 -9 27 -3 0 -11 11 -17 24 -8 19 -8
26 1 30 9 3 9 5 0 5 -7 1 -13 10 -13 21 0 11 -3 20 -7 20 -5 0 -9 12 -10 26 0
15 -5 29 -10 33 -8 6 -14 24 -16 53 -1 10 -4 18 -7 18 -4 0 -6 10 -5 23 1 12
-2 30 -7 41 -7 13 -7 16 1 12 6 -4 11 -3 11 3 0 5 -6 12 -13 14 -9 4 -9 6 1 6
9 1 10 6 3 19 -6 10 -6 24 -1 32 5 8 6 19 2 25 -4 5 -7 42 -7 80 0 39 -4 75
-8 82 -4 6 -3 15 3 18 8 5 8 11 0 20 -7 8 -9 19 -5 25 3 5 2 10 -3 10 -5 0 -8
16 -7 36 0 25 -5 40 -19 50 -15 10 -16 14 -6 14 10 0 11 3 4 8 -6 4 -10 17 -9
30 1 12 -3 22 -8 22 -5 0 -7 7 -3 15 3 8 2 15 -2 15 -4 0 -18 25 -31 55 -13
30 -28 55 -33 55 -5 0 -7 4 -3 9 3 5 -2 16 -10 24 -8 9 -15 19 -15 24 0 5 -9
15 -19 22 -11 8 -17 20 -14 28 3 7 -2 13 -11 13 -9 0 -16 6 -16 14 0 8 -7 17
-16 20 -9 3 -12 11 -8 18 4 7 4 10 -1 6 -4 -4 -16 2 -26 14 -11 11 -19 17 -19
13 0 -4 -8 2 -19 13 -10 12 -23 22 -29 22 -5 0 -13 7 -16 16 -4 9 -9 14 -12
11 -4 -3 -13 1 -21 9 -8 8 -19 12 -24 9 -5 -4 -9 -2 -9 3 0 5 -13 15 -30 22
-16 7 -30 16 -30 21 0 5 -7 9 -15 9 -8 0 -15 5 -15 11 0 5 -5 7 -11 4 -6 -4
-13 2 -16 14 -3 12 -9 21 -13 21 -14 0 -37 54 -36 82 1 15 -2 24 -6 22 -4 -3
-8 3 -8 13 0 11 -6 25 -12 32 -11 11 -10 13 2 7 8 -4 6 0 -4 8 -11 9 -16 16
-11 16 4 0 0 10 -11 22 -10 12 -13 18 -7 14 9 -5 11 -2 7 8 -3 9 -11 13 -17 9
-6 -4 -8 1 -5 13 3 11 0 25 -6 31 -27 29 -34 41 -29 47 4 3 1 6 -6 6 -7 0 -9
5 -6 10 3 6 1 10 -4 10 -6 0 -11 7 -11 15 0 8 -4 15 -10 15 -5 0 -10 6 -10 13
0 7 -9 23 -20 35 -11 12 -20 26 -20 32 0 5 -3 10 -7 10 -5 0 -19 17 -33 37
-14 21 -42 54 -62 74 -20 21 -34 40 -31 43 6 6 -14 10 -32 6 -5 -1 -7 1 -3 5
8 9 -16 35 -32 35 -6 0 -9 4 -5 10 3 5 -7 17 -22 27 -15 10 -32 23 -36 30 -4
7 -15 13 -22 13 -8 0 -15 7 -15 16 0 8 -4 13 -9 10 -5 -3 -24 8 -42 24 -19 16
-40 30 -47 30 -7 0 -15 7 -18 15 -4 8 -10 13 -14 10 -4 -3 -11 2 -14 11 -4 9
-9 14 -12 11 -3 -3 -19 8 -35 24 -15 16 -34 29 -40 29 -7 0 -10 3 -7 6 6 5
-38 54 -48 54 -3 0 -27 22 -53 49 -27 28 -51 47 -55 44 -3 -4 -6 -1 -6 6 0 15
-46 62 -53 54 -4 -3 -9 6 -13 21 -3 14 -12 26 -18 26 -7 0 -19 11 -26 25 -7
13 -16 23 -19 21 -10 -6 -30 21 -23 30 4 4 2 5 -3 1 -6 -3 -26 8 -44 24 -18
16 -37 26 -42 23 -5 -3 -9 -1 -9 3 0 5 -16 15 -35 22 -19 7 -35 17 -35 22 0 6
-4 7 -10 4 -5 -3 -10 -2 -10 3 0 5 -6 9 -12 9 -7 1 -35 6 -63 11 -27 6 -53 8
-57 6 -5 -3 -8 0 -8 5 0 6 -13 11 -29 11 -17 0 -32 4 -36 10 -3 5 -13 6 -22 3
-12 -5 -14 -3 -8 7 5 8 4 11 -2 7 -13 -8 -83 14 -83 25 0 5 -5 6 -10 3 -5 -3
-10 2 -10 11 0 10 -3 15 -6 11 -9 -8 -45 38 -92 117 -9 16 -25 36 -34 45 -10
8 -18 22 -18 30 0 8 -3 11 -6 8 -4 -3 -15 5 -26 18 -11 14 -24 22 -30 19 -7
-4 -8 -2 -4 4 3 6 -1 17 -10 24 -9 7 -26 23 -39 34 -13 12 -26 19 -29 17 -3
-3 -8 2 -12 11 -3 9 -12 16 -20 16 -8 0 -14 5 -14 10 0 6 -6 10 -13 10 -7 0
-22 8 -33 18 -11 9 -26 18 -33 20 -7 1 -20 9 -28 17 -8 9 -19 13 -24 10 -5 -4
-9 -1 -9 4 0 6 -3 10 -7 9 -12 -4 -73 26 -73 34 0 5 -13 8 -30 8 -16 0 -35 6
-42 13 -7 8 -20 12 -30 9 -12 -3 -18 1 -18 12 0 9 -3 15 -7 14 -16 -4 -92 25
-87 33 3 5 -2 6 -10 3 -10 -4 -16 -1 -16 9 0 11 -6 13 -22 9 -14 -3 -19 -2
-14 6 6 11 -12 17 -36 13 -5 0 -8 3 -8 8 0 5 -16 15 -34 22 -19 7 -33 16 -31
20 4 6 -51 23 -68 20 -4 0 -6 2 -5 6 2 5 -1 10 -7 11 -5 2 -15 8 -22 14 -7 5
-17 7 -23 3 -5 -3 -10 1 -10 9 0 9 -3 15 -7 14 -14 -4 -53 13 -53 22 0 5 -6 7
-14 4 -8 -3 -17 0 -21 5 -3 6 -11 9 -16 6 -5 -4 -9 -2 -9 3 0 5 -15 13 -32 17
-36 8 -45 11 -53 15 -7 3 -22 7 -36 9 -5 0 -8 5 -5 9 3 5 -8 6 -25 4 -16 -2
-35 1 -43 7 -10 8 -16 9 -21 1 -3 -6 -12 -7 -18 -3 -16 10 -33 13 -84 15 -24
1 -43 6 -43 11 0 5 -7 4 -15 -3 -8 -7 -15 -8 -15 -3 0 5 -11 9 -25 9 -14 0
-25 -5 -25 -10 0 -6 -5 -4 -10 4 -5 8 -10 12 -10 8 0 -4 -13 -3 -30 2 -20 6
-30 5 -30 -2 0 -7 -4 -7 -12 -1 -7 5 -28 9 -45 8 -18 0 -33 2 -33 5 0 5 -41
10 -87 10 -13 0 -23 4 -23 9 0 10 -19 9 -37 -2 -9 -6 -11 -3 -6 10 3 10 3 15
-2 11 -4 -4 -15 -2 -23 5 -13 10 -14 9 -8 -2 6 -8 0 -7 -18 4 -14 10 -26 21
-26 26 0 5 -4 8 -8 7 -4 -2 -20 9 -34 24 -14 15 -27 26 -30 23 -2 -3 -11 6
-18 20 -7 14 -17 25 -22 25 -4 0 -8 7 -8 16 0 8 -4 13 -9 9 -5 -3 -12 4 -16
15 -3 11 -11 20 -17 20 -6 0 -24 15 -40 33 -17 17 -27 25 -24 17 4 -8 -1 -5
-10 8 -9 12 -23 22 -30 22 -8 0 -14 5 -14 11 0 5 -4 8 -9 5 -5 -3 -14 1 -21 9
-7 8 -19 15 -26 15 -8 0 -14 5 -14 12 0 6 -3 8 -7 5 -3 -4 -13 -1 -21 6 -13
10 -15 9 -8 -3 7 -13 6 -13 -6 0 -7 8 -22 17 -33 18 -11 2 -21 8 -23 12 -2 5
-10 6 -18 3 -8 -3 -14 0 -14 5 0 6 -9 9 -20 7 -11 -2 -20 0 -20 6 0 5 -9 9
-20 9 -11 0 -20 4 -20 8 0 4 -10 9 -22 9 -45 3 -68 7 -68 14 0 4 -7 10 -16 13
-10 4 -13 2 -8 -7 5 -8 2 -8 -9 2 -9 7 -24 11 -32 7 -10 -4 -14 -2 -9 5 5 8
-3 10 -24 7 -18 -2 -33 0 -36 7 -2 6 -25 11 -50 10 -25 0 -46 2 -46 5 0 3 -24
5 -53 4 -28 0 -57 4 -64 9 -7 5 -18 7 -25 4 -7 -2 -28 2 -45 9 -20 8 -33 9
-33 3 0 -6 -6 -7 -12 -2 -21 12 -38 12 -38 0 0 -9 -2 -9 -8 -1 -10 15 -72 24
-72 10 0 -8 -3 -8 -8 0 -4 5 -24 10 -44 9 -21 -1 -38 3 -38 9 0 7 -3 8 -8 1
-9 -12 -52 -15 -52 -3 0 5 -9 4 -20 -2 -14 -8 -20 -8 -20 0 0 8 -6 8 -20 0
-15 -8 -20 -8 -20 2 0 9 -3 9 -10 -2 -9 -13 -10 -13 -10 0 0 12 -2 12 -9 1 -6
-9 -10 -10 -16 -2 -5 8 -11 9 -19 2 -7 -6 -29 -9 -49 -8 -20 2 -37 0 -37 -3 0
-4 -11 -6 -25 -5 -14 2 -25 -2 -25 -8 0 -7 -5 -5 -10 3 -9 13 -10 13 -10 0 0
-13 -1 -13 -10 0 -5 8 -10 10 -10 5 0 -6 -16 -11 -35 -12 -23 0 -33 3 -28 11
4 6 -2 4 -12 -4 -14 -11 -19 -12 -22 -2 -3 6 -9 10 -14 6 -5 -3 -9 0 -9 5 0 6
-3 10 -7 10 -21 -3 -33 3 -33 17 0 8 -4 12 -10 9 -5 -3 -19 6 -32 20 -12 14
-27 25 -34 25 -6 0 -15 7 -18 16 -3 8 -10 12 -16 9 -5 -3 -10 -2 -10 3 0 6
-18 17 -40 26 -22 9 -40 21 -40 27 0 5 -4 8 -10 4 -5 -3 -17 -1 -27 4 -30 16
-61 26 -111 35 -7 1 -21 10 -32 19 -13 11 -20 12 -24 4 -3 -9 -5 -8 -5 1 -1 7
-5 10 -11 7 -5 -3 -10 -2 -10 3 0 6 -9 8 -20 5 -11 -3 -26 -1 -33 4 -6 5 -40
9 -73 9 -51 -1 -60 2 -56 14 5 12 3 13 -10 3 -8 -7 -18 -10 -21 -6 -4 3 -14 0
-24 -8 -11 -9 -14 -10 -9 -1 8 13 4 14 -84 16 -30 1 -60 4 -66 8 -6 4 -14 4
-18 0 -4 -3 -21 -7 -39 -8 -18 -1 -47 -4 -65 -8 -25 -5 -32 -3 -26 5 5 8 3 9
-7 3 -19 -11 -59 -13 -59 -2 0 4 -10 8 -22 8 -19 0 -20 2 -8 10 13 9 13 10 0
11 -8 1 -19 1 -23 0 -5 -1 -6 3 -3 7 7 12 -28 44 -38 35 -4 -5 -6 -1 -4 7 1 8
-1 15 -7 16 -29 5 -55 17 -55 26 0 5 -5 6 -10 3 -6 -3 -10 0 -10 7 0 9 -3 9
-10 -2 -7 -11 -10 -11 -10 -2 0 7 -4 11 -9 7 -5 -3 -12 -1 -16 5 -4 6 -11 7
-17 4 -6 -4 -14 0 -19 7 -7 11 -9 11 -9 1 0 -7 -4 -11 -10 -7 -5 3 -25 6 -44
7 -21 1 -33 5 -29 11 4 6 1 7 -8 2 -18 -12 -69 -14 -75 -3 -3 4 -13 4 -22 -1
-11 -6 -24 -5 -36 1 -14 8 -17 7 -12 -1 4 -6 2 -11 -3 -11 -6 0 -11 6 -11 13
0 7 -3 8 -8 2 -9 -13 -42 -16 -42 -4 0 5 -11 4 -25 -1 -17 -7 -25 -6 -25 1 0
8 -5 7 -15 -1 -10 -8 -15 -9 -15 -1 0 7 -8 8 -25 1 -18 -7 -25 -6 -25 3 0 9
-3 8 -9 -1 -4 -8 -12 -14 -16 -14 -4 0 -12 6 -16 14 -6 8 -12 9 -16 3 -12 -15
-31 -17 -53 -5 -13 7 -21 7 -25 0 -5 -8 -12 -7 -23 2 -12 10 -14 10 -8 1 4 -8
1 -13 -8 -13 -9 0 -16 6 -16 13 0 9 -2 9 -8 0 -4 -6 -28 -10 -55 -10 -26 1
-47 -1 -47 -4 0 -4 -15 -7 -32 -8 -69 -2 -88 -5 -88 -14 0 -4 -5 -5 -10 -2 -6
4 -16 3 -23 -2 -7 -5 -19 -9 -27 -8 -8 0 -18 -4 -22 -10 -5 -6 -8 -5 -8 3 0
10 -4 9 -16 -3 -9 -9 -22 -14 -30 -11 -7 3 -18 -2 -24 -9 -7 -8 -16 -12 -21
-9 -5 3 -9 0 -9 -6 0 -6 -4 -9 -9 -6 -5 3 -14 -1 -21 -9 -7 -8 -16 -13 -20
-10 -5 3 -11 1 -15 -5 -3 -5 -15 -10 -26 -10 -11 0 -18 -4 -15 -9 4 -5 -7 -15
-24 -23 -16 -7 -30 -16 -30 -20 0 -5 -6 -8 -14 -8 -8 0 -16 -5 -18 -11 -2 -6
-15 -12 -30 -12 -14 -1 -24 -6 -21 -11 3 -5 -8 -7 -26 -4 -18 3 -31 0 -31 -6
0 -7 -3 -7 -8 -1 -7 11 -62 15 -62 5 0 -3 -9 -6 -20 -6 -11 0 -20 5 -20 11 0
5 -5 3 -10 -5 -7 -11 -10 -11 -10 -2 0 9 -6 10 -17 4 -10 -4 -33 -7 -50 -6
-18 1 -36 -2 -39 -8 -4 -6 -9 -5 -14 3 -7 10 -12 10 -26 -2 -16 -12 -17 -12
-9 1 8 13 7 13 -8 1 -14 -11 -17 -11 -17 0 0 9 -3 10 -8 3 -4 -5 -27 -11 -52
-12 -25 -1 -58 -3 -74 -5 -18 -3 -44 4 -63 15 -18 11 -33 17 -33 14 0 -3 -14
7 -31 24 -28 27 -47 35 -71 31 -5 0 -8 5 -8 13 0 9 -9 13 -25 11 -14 -1 -25 2
-25 7 0 5 -4 7 -9 3 -5 -3 -12 -1 -16 4 -3 6 -13 7 -21 4 -9 -3 -20 0 -25 8
-7 12 -9 12 -9 0 0 -10 -3 -11 -13 -3 -8 7 -18 7 -27 2 -8 -5 -19 -6 -25 -2
-15 10 -29 9 -37 -3 -5 -6 -8 -5 -8 4 0 11 -3 11 -15 1 -12 -10 -15 -10 -15 0
0 10 -3 10 -15 0 -12 -10 -15 -10 -15 1 0 10 -3 10 -8 3 -4 -6 -15 -10 -24 -8
-10 1 -20 -2 -23 -6 -3 -5 -14 -7 -25 -5 -11 2 -20 -1 -20 -7 0 -6 -9 -8 -20
-5 -11 3 -20 2 -20 -3 0 -4 -7 -11 -16 -14 -8 -3 -13 -2 -10 2 3 5 -14 -1 -38
-12 -24 -12 -41 -25 -38 -30 3 -5 0 -6 -7 -2 -7 5 -21 0 -33 -11 -12 -10 -18
-12 -14 -5 7 11 4 11 -13 0 -12 -7 -21 -16 -21 -20 0 -4 -7 -5 -15 -2 -8 4
-15 1 -15 -6 0 -6 -4 -8 -10 -5 -5 3 -10 1 -10 -5 0 -6 -4 -9 -9 -6 -5 3 -12
-1 -15 -10 -3 -8 -10 -13 -15 -10 -5 4 -11 2 -13 -3 -1 -5 -10 -11 -18 -13 -8
-2 -26 -14 -39 -28 -13 -14 -20 -18 -15 -10 5 11 2 10 -13 -3 -11 -9 -23 -14
-26 -11 -4 4 -9 -1 -13 -10 -5 -13 -9 -14 -20 -5 -8 6 -14 7 -14 2 0 -5 -7
-10 -15 -10 -8 0 -15 7 -15 14 0 8 -4 12 -8 9 -13 -8 -33 10 -35 32 0 11 -4
19 -7 17 -3 -1 -11 3 -17 11 -8 8 -9 15 -3 19 6 4 7 13 1 23 -4 9 -7 27 -6 40
1 12 -1 22 -5 22 -4 0 -6 11 -5 25 2 14 0 25 -5 25 -4 0 -6 8 -3 19 3 10 0 22
-7 26 -8 5 -8 10 1 21 9 11 8 15 -5 20 -9 3 -14 10 -11 14 3 5 1 11 -5 15 -6
4 -8 11 -5 16 4 5 1 9 -4 9 -6 0 -10 3 -10 8 1 4 0 10 -1 15 -1 4 -4 12 -5 17
-1 6 -3 11 -5 13 -2 3 -10 45 -12 70 -1 9 -5 17 -9 17 -7 0 -24 54 -17 56 2 0
-2 7 -8 15 -6 8 -10 22 -9 32 2 9 -1 17 -7 17 -6 0 -4 7 3 17 8 9 9 14 3 10
-10 -6 -25 30 -28 68 -1 6 -5 13 -11 17 -5 4 -11 12 -11 18 -1 5 -2 11 -4 13
-1 1 -3 9 -5 17 -2 8 -6 29 -10 45 -4 17 -7 38 -6 48 0 10 -5 15 -11 11 -7 -5
-9 -1 -5 9 4 10 2 17 -4 17 -6 0 -9 7 -5 15 3 8 0 15 -5 15 -6 0 -9 10 -7 23
2 13 -2 29 -9 36 -8 7 -11 21 -8 32 4 11 2 19 -5 19 -6 0 -9 4 -5 9 3 5 1 12
-5 16 -5 3 -10 15 -10 26 0 10 -4 19 -8 19 -4 0 -9 12 -10 26 -1 14 -5 31 -9
37 -4 7 -9 23 -11 36 -2 14 -13 38 -25 55 -11 16 -16 26 -9 22 16 -10 15 -1
-3 33 -8 16 -11 31 -8 34 3 4 0 13 -6 21 -7 8 -10 20 -7 25 4 5 1 13 -7 18 -7
4 -13 16 -14 26 -1 34 -3 38 -12 33 -5 -4 -8 2 -7 11 2 10 -3 36 -11 58 -7 21
-14 49 -15 61 -1 13 -6 20 -10 18 -7 -5 -12 18 -9 39 0 4 -3 7 -9 7 -5 0 -7 7
-4 15 4 9 0 15 -7 15 -11 0 -11 3 1 10 8 5 10 10 5 10 -6 0 -11 9 -12 20 -1
10 -8 34 -16 52 -31 68 -34 80 -36 114 0 14 -5 23 -10 20 -4 -3 -6 6 -3 19 3
16 0 25 -8 25 -7 0 -10 7 -6 15 3 8 1 15 -4 15 -6 0 -10 8 -10 18 0 10 -3 22
-7 25 -3 4 -8 24 -10 44 -2 21 -9 41 -16 45 -7 4 -8 8 -3 8 5 0 3 7 -4 15 -7
8 -10 15 -6 15 4 0 0 13 -8 29 -9 16 -12 31 -9 35 4 3 2 6 -3 6 -5 0 -11 12
-12 28 -1 15 -7 29 -12 30 -6 2 -7 8 -4 13 3 5 -4 28 -15 49 -11 22 -18 40
-15 40 4 0 2 6 -5 13 -8 10 -7 17 2 27 9 10 9 11 0 6 -9 -5 -13 1 -14 16 -2
48 3 83 15 90 7 5 6 8 -4 8 -12 0 -13 2 -1 9 7 5 10 14 7 20 -4 6 -3 11 3 11
5 0 8 9 6 20 -2 11 -1 22 3 24 6 4 8 61 2 61 -1 0 -3 7 -5 15 -2 8 -7 26 -10
40 -7 24 -12 56 -14 74 -1 5 -4 7 -7 3 -3 -3 -19 8 -35 26 -16 17 -29 28 -29
24 0 -4 -6 -2 -14 5 -8 7 -12 16 -9 21 2 4 -1 6 -9 5 -7 -2 -12 2 -11 9 2 7
-4 10 -12 7 -13 -5 -17 0 -14 22 0 3 -7 11 -17 18 -9 7 -14 18 -10 24 3 6 1
14 -5 18 -8 5 -9 3 -4 -6 5 -8 4 -11 -3 -6 -6 4 -9 13 -5 21 3 8 0 15 -6 15
-6 0 -10 3 -10 8 1 4 0 10 -1 15 -1 4 -4 12 -5 17 -1 6 -3 11 -5 13 -1 1 -4
15 -6 31 -3 16 -9 37 -14 47 -7 12 -6 19 3 22 9 4 9 6 0 6 -7 1 -13 8 -13 16
0 8 -6 15 -12 15 -9 0 -8 4 2 10 10 7 11 10 2 10 -7 0 -18 11 -24 25 -6 14
-20 25 -30 25 -11 0 -16 -4 -13 -10 3 -5 1 -10 -4 -10 -6 0 -11 -9 -11 -21 0
-11 4 -17 10 -14 6 3 7 -1 4 -9 -3 -9 -11 -13 -18 -9 -6 3 -3 -3 7 -14 10 -11
15 -27 11 -37 -3 -9 -2 -16 3 -16 5 0 10 -6 11 -12 0 -7 7 -31 16 -53 8 -22
15 -49 16 -61 0 -11 3 -24 7 -27 13 -14 9 -62 -6 -75 -13 -11 -13 -12 -1 -6 8
3 2 -7 -15 -23 -16 -16 -33 -28 -37 -26 -5 2 -8 0 -8 -5 0 -11 -44 -26 -72
-25 -10 0 -15 -4 -12 -8 3 -5 -3 -9 -13 -10 -10 0 -27 -2 -38 -5 -11 -2 -36
-5 -55 -7 -19 -1 -41 -6 -49 -11 -8 -5 -16 -4 -21 4 -6 9 -9 9 -11 1 -5 -14
-62 -16 -129 -6 -25 4 -54 8 -65 9 -11 0 -23 5 -26 10 -6 8 -49 16 -101 19
-15 1 -24 5 -22 9 5 8 -10 12 -33 9 -7 -1 -13 3 -13 9 0 5 -7 10 -15 10 -8 0
-15 4 -15 10 0 5 -3 9 -7 8 -5 -2 -19 5 -33 15 -13 9 -20 17 -15 18 6 0 0 4
-13 10 -13 5 -20 13 -17 19 3 5 -1 10 -9 10 -9 0 -16 6 -16 14 0 8 -13 20 -29
27 -16 7 -27 17 -25 21 3 4 0 8 -6 8 -6 0 -8 5 -5 10 3 6 -4 10 -15 10 -17 0
-21 4 -16 17 4 10 4 14 0 11 -7 -8 -34 16 -34 30 0 6 -7 13 -16 16 -8 3 -12
10 -9 16 3 5 -1 10 -9 10 -9 0 -16 5 -16 11 0 20 -43 98 -51 93 -4 -2 -6 5 -4
16 2 13 -1 20 -11 20 -8 0 -14 3 -15 8 0 4 -3 16 -5 27 -3 11 -6 26 -6 33 -1
6 -6 12 -12 12 -6 0 -4 4 4 9 8 6 18 7 22 5 5 -3 7 -2 6 3 -2 4 0 8 3 8 10 0
39 33 39 44 0 6 7 11 16 11 8 0 13 4 9 9 -3 5 -1 12 5 16 6 4 8 11 5 16 -4 5
-1 9 6 9 7 0 9 3 6 7 -4 3 0 17 9 31 9 13 11 22 6 18 -6 -4 -10 2 -9 14 1 11
4 20 7 20 8 0 8 3 14 98 3 39 2 72 -3 72 -10 0 -4 65 9 90 6 11 15 18 21 15 5
-4 9 0 9 8 0 14 75 44 99 39 8 -2 10 1 5 9 -4 8 -3 10 5 5 6 -4 18 -2 26 4 8
7 15 9 15 4 0 -5 7 0 15 10 8 11 15 17 15 13 0 -3 10 4 23 16 14 14 18 25 12
29 -6 5 -5 8 3 8 7 0 11 11 10 29 -1 16 -5 28 -9 25 -4 -2 -9 1 -11 7 -3 10
-38 19 -85 22 -7 0 -13 5 -13 11 0 6 -5 4 -10 -4 -6 -10 -10 -11 -10 -2 0 6
-9 12 -19 12 -52 0 -143 82 -124 112 3 7 1 8 -5 4 -7 -4 -12 -2 -12 4 0 6 -7
18 -15 27 -8 8 -12 20 -8 26 3 7 3 9 -2 5 -4 -4 -18 6 -30 22 -12 16 -26 26
-30 22 -5 -4 -5 -2 -2 5 4 6 4 18 1 27 -5 14 -34 16 -220 16 l-214 0 0 -25z
m595 -1935 c-3 -5 3 -10 14 -10 12 0 21 -4 21 -10 0 -5 7 -7 15 -4 8 4 15 1
15 -6 0 -6 4 -9 9 -5 5 3 15 0 23 -7 7 -7 20 -14 28 -16 8 -2 21 -10 28 -19
10 -14 12 -14 12 -2 0 9 3 10 8 3 11 -17 42 -25 42 -11 0 8 4 6 10 -3 5 -8 10
-10 10 -5 0 6 5 3 10 -5 8 -12 10 -12 10 -1 0 10 3 11 14 2 9 -8 16 -8 20 -2
4 5 18 6 34 2 15 -5 36 -5 47 -1 11 4 32 5 47 4 16 -2 28 1 28 7 0 8 4 8 13 1
7 -6 18 -7 26 -2 8 4 21 6 29 2 9 -3 13 -1 9 5 -7 11 22 11 41 -1 7 -4 12 -2
12 4 0 7 6 10 14 7 8 -3 17 1 20 10 5 12 9 13 20 4 9 -8 16 -8 20 -2 4 6 14 7
23 4 12 -5 14 -3 8 8 -8 12 -6 12 8 0 9 -7 17 -9 17 -4 0 5 10 10 23 10 64 4
97 9 97 15 0 4 6 5 14 2 8 -3 24 0 36 6 17 9 21 9 15 0 -5 -9 -1 -9 16 1 13 7
35 13 49 15 14 1 25 3 25 4 0 1 30 3 67 4 37 1 65 -1 63 -5 -3 -4 2 -9 10 -13
8 -3 15 -12 15 -21 0 -8 7 -15 15 -15 8 0 15 -9 15 -19 0 -11 4 -22 9 -25 9
-6 26 -74 22 -90 -1 -4 4 -15 11 -24 11 -13 11 -14 -2 -7 -13 8 -13 6 -1 -8 7
-9 11 -24 7 -32 -3 -9 -2 -13 4 -10 9 5 15 -15 11 -37 0 -5 4 -8 9 -8 6 0 10
-11 10 -25 0 -14 6 -25 13 -25 9 0 8 -3 -2 -9 -10 -6 -10 -10 -1 -16 6 -4 9
-14 6 -22 -4 -9 -2 -11 6 -7 8 5 9 2 5 -9 -3 -9 -2 -19 3 -22 6 -4 10 -15 10
-26 0 -10 5 -19 11 -19 6 0 9 -7 5 -15 -3 -8 2 -19 12 -24 12 -7 13 -10 3 -11
-10 0 -10 -5 3 -25 11 -17 12 -25 5 -25 -7 0 -5 -8 6 -20 14 -15 15 -20 4 -20
-9 0 -10 -3 -3 -8 13 -9 28 -43 25 -59 -1 -7 3 -13 9 -13 6 0 9 -4 6 -9 -4 -5
-1 -22 5 -38 6 -15 12 -36 15 -47 2 -10 11 -30 20 -43 11 -18 12 -23 3 -18 -8
5 -5 -1 5 -13 14 -17 16 -22 5 -22 -11 0 -12 -2 -1 -9 7 -4 15 -19 17 -32 7
-42 31 -120 36 -115 2 2 5 -10 6 -27 1 -17 8 -34 15 -39 10 -6 10 -8 -1 -8 -9
0 -10 -4 -4 -12 6 -7 9 -21 8 -31 -2 -10 1 -14 8 -10 6 4 8 0 4 -10 -3 -9 -1
-17 4 -19 5 -2 11 -14 12 -28 0 -14 8 -30 17 -37 11 -9 12 -12 2 -13 -8 0 -10
-5 -5 -12 4 -7 8 -15 9 -18 1 -3 5 -20 9 -38 4 -18 12 -35 16 -38 5 -3 9 -16
9 -30 0 -14 4 -23 9 -20 4 3 7 -6 5 -19 -1 -14 1 -25 6 -25 4 0 6 -9 3 -20 -3
-12 0 -20 6 -20 7 0 11 -8 9 -17 -2 -10 2 -17 7 -16 6 1 11 -10 12 -24 0 -14
5 -28 10 -32 9 -7 14 -25 17 -58 0 -13 5 -23 9 -23 5 0 7 -6 4 -12 -2 -7 3
-19 12 -26 12 -10 13 -12 1 -6 -12 7 -13 5 -3 -8 7 -8 10 -18 6 -21 -3 -4 -1
-7 6 -7 8 0 11 -8 8 -20 -3 -11 -1 -20 3 -20 5 0 9 -8 9 -17 1 -39 5 -53 13
-53 5 0 8 -8 7 -17 -3 -20 20 -74 36 -85 6 -5 5 -8 -4 -8 -9 0 -10 -4 -4 -12
11 -13 26 -63 28 -86 0 -7 7 -17 15 -22 13 -9 13 -10 0 -10 -13 0 -13 -1 0
-10 8 -5 11 -10 7 -10 -5 0 -5 -6 0 -12 4 -7 8 -17 9 -23 1 -5 6 -19 10 -29 6
-15 4 -17 -7 -11 -8 5 -7 1 4 -12 9 -11 14 -23 10 -26 -3 -4 -1 -7 5 -7 7 0
12 -5 12 -11 0 -5 -6 -7 -12 -4 -7 4 -2 -3 11 -14 14 -13 18 -21 10 -21 -10 0
-11 -2 -2 -8 9 -6 22 -49 25 -89 1 -7 6 -13 12 -13 5 0 1 -7 -10 -16 -10 -8
-14 -13 -8 -10 7 3 14 -1 18 -9 3 -8 2 -14 -2 -14 -24 4 -34 -3 -29 -20 3 -14
1 -18 -9 -14 -8 3 -14 0 -14 -5 0 -11 -38 -28 -52 -24 -5 1 -8 -3 -8 -9 0 -5
-8 -9 -17 -8 -10 2 -29 -3 -42 -10 -13 -7 -21 -9 -17 -3 3 5 -1 13 -10 16 -8
3 -12 2 -9 -4 3 -6 3 -10 -2 -11 -9 -1 -29 -5 -53 -10 -8 -2 -21 -10 -28 -17
-8 -7 -17 -10 -22 -7 -4 3 -11 -3 -14 -12 -6 -15 -8 -15 -16 -3 -7 10 -10 11
-10 3 0 -7 -7 -13 -15 -13 -8 0 -15 -4 -15 -10 0 -5 -9 -10 -20 -10 -11 0 -23
-7 -26 -15 -4 -8 -9 -13 -13 -11 -9 6 -49 -17 -51 -29 -1 -5 -8 -9 -16 -7 -8
2 -14 -2 -14 -7 0 -5 -9 -13 -20 -16 -12 -4 -17 -11 -14 -18 4 -7 4 -9 -1 -5
-4 4 -16 3 -27 -3 -14 -8 -24 -7 -36 3 -11 9 -14 10 -8 1 12 -22 -5 -14 -29
11 -13 14 -26 23 -29 20 -3 -2 -4 -1 -1 3 3 3 -1 13 -8 21 -10 13 -9 14 3 7
11 -6 10 -3 -2 11 -10 11 -19 37 -20 57 -2 20 -9 39 -16 42 -10 3 -10 10 -2
25 6 11 7 20 1 20 -12 0 -9 33 4 42 6 5 5 8 -2 8 -8 0 -13 15 -13 39 0 22 -4
42 -8 45 -5 3 -8 15 -7 28 1 13 -2 29 -8 36 -6 7 -6 12 0 12 5 0 10 7 10 15 0
8 -4 12 -9 9 -7 -5 -12 20 -5 29 1 2 -5 12 -13 22 -11 14 -11 17 -1 11 10 -7
11 -3 5 15 -4 13 -8 32 -8 42 0 9 -4 17 -8 17 -5 0 -4 10 3 21 8 15 8 19 0 15
-7 -5 -11 2 -12 16 -1 26 -3 34 -14 65 -4 12 -6 25 -5 29 1 4 -4 11 -12 15
-10 7 -10 9 2 9 12 0 13 2 1 9 -7 5 -15 26 -16 47 -1 22 -3 39 -4 39 -2 0 -9
38 -15 90 -2 17 -7 38 -11 48 -4 9 -4 24 -1 33 3 9 2 12 -4 9 -7 -4 -9 3 -6
19 3 14 1 26 -4 26 -5 0 -6 7 -3 17 4 11 3 14 -5 9 -9 -5 -9 -1 -2 18 5 14 6
26 2 26 -5 0 -7 16 -6 35 2 20 -1 35 -8 35 -7 0 -7 4 1 13 6 8 8 16 6 19 -8 8
-14 43 -16 103 -1 31 -7 55 -13 55 -7 0 -7 3 -1 8 15 10 19 46 5 37 -9 -6 -9
-2 -1 14 9 16 9 21 -1 21 -9 0 -9 3 2 10 8 5 10 10 5 10 -6 0 -12 12 -13 27
-1 15 -5 29 -10 32 -4 3 -9 17 -10 31 -2 14 -8 27 -13 28 -5 2 -9 10 -9 18 0
9 -3 13 -7 11 -10 -6 -34 19 -26 27 4 3 -4 6 -16 6 -14 0 -20 4 -15 12 5 8 2
9 -9 5 -9 -3 -20 0 -24 8 -5 7 -12 14 -18 14 -23 2 -85 32 -85 42 0 5 -4 8 -9
5 -11 -7 -91 34 -91 46 0 4 -11 8 -25 8 -14 0 -25 5 -25 10 0 6 -7 10 -15 10
-8 0 -15 5 -15 11 0 6 -7 9 -15 6 -8 -4 -17 -1 -21 5 -5 7 -2 8 6 3 8 -5 11
-4 6 3 -4 6 -13 9 -20 6 -7 -3 -20 2 -29 10 -8 8 -17 12 -21 9 -3 -4 -6 -1 -6
6 0 7 -4 9 -10 6 -5 -3 -10 -1 -10 4 0 6 -6 11 -13 11 -7 0 -23 9 -35 20 -12
12 -22 16 -22 10 0 -6 -5 -8 -10 -5 -6 4 -7 11 -4 17 4 6 3 8 -3 5 -12 -8 -73
14 -73 26 0 4 -4 6 -9 2 -5 -3 -17 2 -25 11 -9 9 -23 14 -30 11 -8 -3 -24 2
-37 11 -13 9 -32 15 -41 14 -10 -2 -18 2 -18 8 0 7 -8 9 -20 5 -11 -4 -19 -3
-18 2 2 5 -13 24 -32 42 -19 18 -28 30 -20 26 10 -4 9 -2 -2 8 -10 8 -15 17
-11 20 3 4 1 7 -6 7 -7 0 -10 4 -7 9 3 4 -1 17 -9 27 -8 10 -15 27 -15 37 0 9
-4 17 -9 17 -5 0 -8 8 -7 18 2 9 -4 28 -13 42 -13 19 -13 22 -2 15 8 -5 5 6
-8 23 -12 18 -20 32 -16 32 3 0 1 9 -5 20 -8 15 -8 20 2 21 9 0 10 2 1 5 -7 3
-9 12 -6 21 5 12 3 14 -8 8 -11 -6 -12 -5 -1 6 6 7 12 17 12 22 0 4 -6 5 -12
1 -10 -6 -10 -4 0 8 9 11 10 18 2 23 -6 3 -7 12 -3 18 11 17 10 31 -2 39 -7 5
-6 8 1 8 6 0 12 12 12 28 4 75 24 131 47 133 28 3 33 4 41 12 11 10 16 9 9 -3z
m-72 -1372 c10 2 25 -2 33 -8 8 -7 14 -9 14 -5 0 4 12 0 26 -10 15 -9 23 -12
19 -5 -4 7 5 4 21 -6 15 -11 25 -13 21 -7 -6 9 -3 11 7 7 9 -3 16 -10 16 -16
0 -5 4 -7 9 -3 6 3 13 0 18 -8 9 -14 63 -42 76 -38 5 1 6 -2 3 -7 -5 -9 80
-52 103 -52 7 0 9 -4 6 -10 -3 -5 0 -7 8 -5 14 6 57 -26 57 -42 0 -6 6 -15 13
-21 9 -8 12 -50 12 -151 0 -78 3 -141 8 -141 4 0 3 -8 -2 -19 -6 -10 -7 -21
-4 -25 7 -7 8 -14 15 -98 1 -27 7 -48 12 -48 5 0 2 -7 -5 -17 -11 -13 -11 -17
-1 -21 10 -3 10 -7 0 -20 -10 -12 -10 -14 -1 -8 9 5 12 -1 9 -24 -3 -25 0 -30
12 -25 12 4 13 3 3 -9 -7 -8 -10 -20 -6 -26 4 -6 9 -29 11 -50 3 -22 12 -56
20 -75 8 -20 12 -41 8 -47 -5 -7 -2 -8 6 -3 10 6 12 4 7 -7 -3 -9 1 -25 10
-37 8 -12 12 -28 9 -36 -2 -7 -2 -15 2 -17 4 -2 15 -18 24 -36 11 -20 13 -30
5 -26 -9 6 -9 4 -1 -7 14 -18 32 -84 37 -136 1 -11 5 -19 10 -16 4 2 8 -1 8
-6 3 -21 4 -26 13 -40 7 -10 5 -12 -5 -6 -11 6 -12 5 -1 -6 6 -7 12 -28 12
-46 0 -20 5 -33 13 -33 7 0 8 -3 2 -8 -14 -10 -17 -32 -5 -32 7 0 8 -6 1 -17
-6 -11 -6 -24 0 -35 7 -14 6 -20 -6 -24 -8 -3 -12 -10 -9 -15 3 -5 1 -9 -5 -9
-5 0 -13 -10 -16 -21 -5 -16 -9 -18 -15 -9 -6 9 -10 7 -15 -9 -3 -11 -13 -21
-20 -21 -8 0 -19 -8 -24 -17 -6 -10 -11 -14 -11 -10 0 5 -13 -1 -29 -12 -16
-12 -34 -21 -41 -21 -6 0 -8 -4 -5 -10 3 -5 -1 -10 -9 -10 -9 0 -16 -5 -16
-10 0 -6 -9 -14 -19 -18 -35 -13 -211 -190 -211 -212 0 -5 -5 -10 -12 -10 -6
0 -8 -3 -5 -7 4 -3 -2 -13 -13 -20 -11 -8 -18 -18 -15 -23 3 -4 -2 -13 -10
-20 -8 -7 -15 -19 -15 -26 0 -8 -4 -14 -10 -14 -5 0 -10 -5 -10 -11 0 -6 -13
-24 -30 -39 -16 -15 -30 -23 -30 -18 0 7 -5 7 -13 -1 -10 -8 -17 -7 -25 1 -9
9 -12 9 -12 -1 0 -7 -4 -9 -10 -6 -34 21 -207 20 -241 -1 -5 -3 -9 0 -9 5 0 6
-6 11 -13 11 -13 0 -40 36 -43 60 -2 8 -6 30 -9 48 -5 27 -3 32 7 26 8 -5 7 1
-4 17 -9 14 -13 31 -9 38 4 6 7 36 6 66 -2 38 1 52 9 48 6 -4 5 1 -3 10 -10
13 -10 17 -1 17 10 0 10 3 0 15 -7 9 -8 15 -2 15 6 0 9 8 7 18 -1 9 2 25 7 35
6 12 5 17 -4 17 -10 0 -10 2 -1 8 7 5 14 20 15 35 1 15 5 27 8 27 3 0 7 10 8
23 5 37 8 51 16 68 4 9 6 20 5 25 -1 5 0 11 1 14 1 3 4 16 6 30 2 14 6 39 9
55 3 17 7 39 9 50 2 11 4 20 6 20 1 0 3 12 4 28 2 15 6 30 9 34 4 3 2 12 -4
19 -9 10 -7 15 5 20 12 5 13 10 5 26 -8 15 -8 19 0 14 7 -4 12 1 12 13 1 20 4
32 9 49 1 4 2 10 1 15 0 4 4 7 10 7 5 0 8 4 5 9 -3 5 1 14 9 21 8 7 12 16 9
21 -3 5 0 9 6 9 6 0 8 5 5 10 -3 6 -2 10 3 10 5 0 9 10 8 23 0 12 4 21 9 20 6
-1 10 11 9 25 -1 15 4 33 10 41 8 11 8 15 -2 18 -6 3 -9 10 -5 16 11 17 13 37
4 37 -4 0 -8 7 -8 15 0 8 5 15 10 15 5 0 5 5 -1 13 -7 8 -7 18 -2 27 5 8 6 19
2 25 -9 14 -12 32 -14 82 -1 23 -6 39 -10 37 -4 -3 -8 -1 -8 5 0 5 4 12 10 16
5 3 6 15 1 28 -4 12 -7 50 -7 84 1 35 -1 63 -4 63 -3 0 -5 14 -5 30 0 17 4 30
8 30 4 0 3 9 -3 20 -8 15 -8 20 1 20 7 0 8 4 2 13 -5 6 -9 29 -7 50 1 22 -3
37 -10 37 -6 0 -3 5 7 11 10 6 14 15 10 22 -4 6 -7 37 -8 67 0 30 -4 60 -8 67
-4 6 -3 14 2 17 5 3 7 20 6 38 -2 18 2 39 7 46 6 6 7 12 4 12 -4 0 2 9 13 21
11 12 24 18 30 14 6 -3 11 -1 11 5 0 6 5 8 13 3 6 -4 20 -6 30 -5z m2844
-1013 c-4 -8 -2 -17 3 -20 6 -4 10 2 11 12 0 14 2 15 6 3 3 -8 13 -23 22 -33
8 -10 11 -17 6 -16 -6 2 -20 -2 -33 -9 -16 -9 -22 -10 -20 -1 2 6 -3 14 -10
16 -8 3 -10 -2 -6 -14 5 -15 4 -15 -5 -3 -6 8 -11 11 -11 6 0 -5 -6 -3 -13 3
-8 6 -17 8 -21 4 -4 -4 -4 0 0 10 4 12 2 16 -7 14 -8 -2 -11 -2 -6 0 4 3 5 8
2 13 -3 4 11 7 31 5 23 -1 38 3 41 11 3 8 7 14 10 14 3 0 3 -7 0 -15z m-112
-24 c3 -5 2 -12 -3 -15 -5 -3 -9 1 -9 9 0 17 3 19 12 6z m19 -36 c-4 -8 -8
-15 -10 -15 -2 0 -4 7 -4 15 0 8 4 15 10 15 5 0 7 -7 4 -15z m36 -10 c0 -2 -6
-8 -13 -14 -10 -8 -14 -7 -14 2 0 8 6 14 14 14 7 0 13 -1 13 -2z m-5185 -5145
c3 -5 1 -10 -4 -10 -6 0 -11 5 -11 10 0 6 2 10 4 10 3 0 8 -4 11 -10z m15
-454 c0 -2 -7 -7 -16 -10 -8 -3 -12 -2 -9 4 6 10 25 14 25 6z"/>
<path d="M5301 10778 c8 -15 13 -17 24 -8 10 8 19 8 33 1 20 -11 35 -5 26 10
-2 4 -11 6 -19 2 -8 -3 -15 -1 -15 4 0 4 -13 9 -30 9 -26 2 -28 0 -19 -18z"/>
<path d="M15030 6246 c0 -2 7 -7 16 -10 8 -3 12 -2 9 4 -6 10 -25 14 -25 6z"/>
<path d="M15060 6159 c0 -5 5 -7 10 -4 6 3 10 8 10 11 0 2 -4 4 -10 4 -5 0
-10 -5 -10 -11z"/>
<path d="M90 5500 c0 -5 5 -10 11 -10 5 0 7 5 4 10 -3 6 -8 10 -11 10 -2 0 -4
-4 -4 -10z"/>
</g>
</svg>
