<?xml version="1.0" standalone="no"?>
<!DOCTYPE svg PUBLIC "-//W3C//DTD SVG 20010904//EN"
 "http://www.w3.org/TR/2001/REC-SVG-20010904/DTD/svg10.dtd">
<svg version="1.0" xmlns="http://www.w3.org/2000/svg"
 width="1024.000000pt" height="1024.000000pt" viewBox="0 0 1024.000000 1024.000000"
 preserveAspectRatio="xMidYMid meet">
<metadata>
Created by potrace 1.14, written by Peter Selinger 2001-2017
</metadata>
<g transform="translate(0.000000,1024.000000) scale(0.100000,-0.100000)"
fill="#000000" stroke="none">
<path d="M8998 9429 c-291 -38 -523 -274 -561 -569 l-11 -88 -84 -17 c-217
-43 -409 -140 -593 -298 -132 -113 -301 -332 -409 -529 -23 -43 -44 -78 -46
-78 -3 0 -36 16 -74 35 -38 19 -109 47 -157 62 -81 25 -102 27 -271 28 l-183
2 -37 74 c-89 178 -230 313 -415 399 -110 51 -191 70 -322 77 -193 9 -378 -46
-540 -162 -80 -56 -190 -175 -235 -251 l-34 -60 -49 75 c-233 357 -679 497
-1064 333 -188 -80 -356 -241 -442 -422 l-31 -64 -182 -1 c-150 -1 -195 -5
-248 -21 l-65 -19 -56 85 c-70 105 -183 214 -284 273 -92 54 -255 110 -388
132 -75 12 -352 43 -399 45 -5 0 -8 14 -8 30 0 65 -33 189 -72 269 -52 110
-168 229 -275 284 -430 223 -935 -61 -960 -539 -11 -195 51 -358 186 -494 85
-86 167 -136 281 -172 112 -34 274 -32 385 6 197 68 342 208 412 395 30 83 10
78 221 56 199 -21 296 -40 409 -80 113 -40 198 -94 274 -172 51 -53 129 -158
129 -174 0 -4 -20 -19 -45 -33 -293 -172 -482 -526 -463 -866 l5 -88 -66 -7
c-327 -35 -637 -264 -768 -566 -62 -143 -76 -216 -76 -389 0 -191 17 -263 103
-434 l59 -119 -72 -76 c-85 -90 -135 -163 -187 -274 -111 -238 -119 -529 -21
-782 61 -158 189 -329 325 -434 30 -23 56 -48 59 -55 3 -7 -8 -39 -23 -72 -37
-76 -59 -165 -67 -262 -17 -231 118 -492 321 -621 34 -21 74 -54 88 -73 15
-20 42 -43 61 -52 39 -18 118 -21 146 -6 17 9 19 -1 24 -148 13 -356 133 -632
392 -902 61 -63 137 -148 169 -188 96 -121 247 -229 399 -287 38 -14 146 -45
240 -69 208 -53 272 -80 449 -197 155 -102 227 -135 328 -149 79 -11 183 0
252 27 99 38 220 139 263 217 10 17 49 55 87 84 76 60 164 159 210 239 l30 53
47 -73 c58 -89 141 -179 212 -231 30 -22 70 -63 89 -94 90 -140 252 -225 430
-225 138 0 222 33 414 163 148 100 229 134 448 191 214 55 311 93 416 163 80
54 184 152 232 217 17 24 79 94 138 154 164 168 268 335 335 540 43 129 58
221 64 377 6 137 7 147 24 138 28 -15 107 -12 146 6 19 9 45 33 58 52 13 19
47 48 77 65 29 16 89 67 134 112 134 134 197 289 198 480 0 112 -18 194 -64
293 -35 76 -33 82 45 142 119 92 218 219 290 374 57 121 85 235 92 376 13 271
-81 524 -271 727 l-80 85 18 26 c108 169 166 394 152 585 -35 457 -376 824
-825 888 l-86 12 -1 131 c-1 263 -88 479 -267 663 l-69 72 42 78 c221 413 513
674 848 759 130 33 138 32 153 -13 68 -211 250 -383 464 -438 78 -21 242 -21
320 0 111 29 219 89 298 168 81 82 126 152 165 259 24 66 27 87 27 208 0 121
-3 142 -27 208 -39 107 -84 177 -166 259 -139 139 -345 208 -544 182z m166
-199 c217 -35 378 -226 377 -447 0 -232 -153 -413 -383 -454 -183 -33 -382 65
-472 230 -123 229 -34 517 196 630 96 48 174 59 282 41z m-7911 -295 c218 -46
369 -235 368 -460 0 -95 -18 -159 -66 -240 -47 -81 -115 -141 -205 -184 -65
-31 -86 -36 -168 -39 -69 -3 -111 0 -158 13 -223 60 -375 300 -334 527 26 149
122 278 255 344 109 54 190 64 308 39z m3215 -628 c202 -71 353 -223 426 -426
l31 -86 2 -2090 3 -2090 -53 100 c-63 120 -100 175 -179 267 -63 73 -195 190
-241 214 -30 16 -60 7 -71 -22 -11 -28 2 -47 65 -94 182 -135 337 -354 414
-582 65 -194 66 -217 63 -1096 l-3 -787 -29 -84 c-77 -220 -262 -390 -486
-448 -84 -21 -235 -21 -320 1 -155 39 -321 153 -399 275 -17 26 -42 53 -56 59
-14 7 -68 12 -119 12 -435 0 -833 255 -1022 655 -68 143 -95 261 -101 435 -4
106 -1 169 11 235 64 368 292 668 635 833 l115 56 25 -35 c75 -103 288 -279
338 -279 19 0 43 30 43 55 0 18 -14 32 -61 61 -246 149 -380 384 -380 669 0
170 49 322 148 457 40 55 39 76 0 98 -28 15 -29 14 -68 -30 -48 -54 -131 -219
-156 -310 -27 -98 -24 -349 5 -445 11 -38 18 -73 14 -76 -4 -4 -36 -19 -72
-35 -156 -68 -337 -197 -445 -317 -121 -134 -236 -335 -286 -497 l-22 -73 -56
6 c-168 16 -339 149 -401 315 -27 71 -37 197 -21 275 18 82 73 186 131 245 88
89 188 136 322 151 71 8 86 13 105 36 52 60 15 143 -69 152 -102 12 -293 -49
-404 -129 l-45 -32 -36 19 c-53 29 -178 149 -227 219 -224 315 -196 742 67
1022 138 148 306 233 507 255 52 6 105 13 117 15 62 12 84 98 39 151 -24 27
-27 28 -118 26 -113 -3 -253 -36 -363 -87 -60 -28 -81 -33 -87 -24 -84 127
-119 239 -126 394 -6 156 12 243 80 384 44 91 62 115 142 195 77 78 106 99
193 142 117 59 204 81 351 87 156 6 183 33 157 157 -31 147 -12 343 46 474
137 310 471 500 803 456 161 -22 304 -87 422 -195 77 -70 104 -81 149 -62 39
17 55 42 55 89 0 28 -10 43 -57 90 -72 71 -138 119 -226 163 -77 40 -76 32
-20 134 49 88 168 204 260 253 114 60 196 78 343 74 104 -3 137 -8 198 -30z
m1550 0 c89 -31 166 -76 236 -139 57 -50 135 -158 161 -220 l15 -38 -62 -31
c-135 -68 -280 -189 -290 -242 -12 -61 51 -125 108 -111 14 4 57 34 94 68 127
113 262 176 430 197 234 30 463 -51 635 -225 188 -190 260 -429 210 -695 -18
-91 -15 -108 19 -140 21 -20 38 -23 128 -27 133 -6 235 -28 326 -70 229 -105
386 -301 439 -547 21 -99 13 -277 -17 -372 -17 -54 -88 -206 -104 -223 -2 -1
-38 14 -81 34 -168 77 -424 115 -475 69 -33 -30 -42 -62 -29 -102 14 -44 46
-59 146 -67 430 -34 753 -383 753 -810 0 -63 -7 -138 -15 -175 -47 -197 -164
-375 -321 -487 -69 -49 -83 -53 -109 -24 -32 36 -196 108 -284 126 -107 21
-168 15 -198 -21 -30 -34 -30 -86 0 -120 19 -23 34 -28 101 -36 94 -10 132
-21 209 -62 68 -36 166 -136 202 -207 114 -224 40 -503 -168 -640 -68 -45
-168 -80 -227 -80 l-38 0 -27 83 c-116 350 -362 627 -702 789 -56 27 -103 52
-103 54 0 2 9 37 21 77 46 162 34 366 -32 537 -32 84 -118 223 -146 238 -24
13 -63 -2 -64 -25 -2 -33 2 -45 36 -92 147 -204 177 -512 74 -746 -61 -138
-179 -273 -306 -351 -58 -35 -68 -46 -71 -72 -5 -45 31 -61 79 -37 93 48 216
155 293 257 l27 37 40 -14 c72 -26 203 -99 280 -157 282 -213 449 -548 449
-903 0 -426 -224 -797 -610 -1008 -139 -76 -344 -127 -519 -127 -56 -1 -105
-6 -118 -13 -11 -7 -41 -39 -65 -72 -93 -126 -237 -223 -388 -261 -78 -20
-223 -22 -305 -5 -33 7 -103 33 -155 58 -81 39 -108 59 -180 132 -89 89 -129
153 -171 271 l-24 65 -3 800 c-3 706 -1 812 13 900 30 177 92 335 194 490 43
66 190 221 294 311 52 45 56 55 27 84 -26 26 -28 26 -86 -12 -133 -87 -336
-331 -413 -499 l-30 -64 2 2095 2 2095 23 65 c41 113 90 190 176 275 92 91
182 144 298 175 108 30 295 23 396 -13z"/>
<path d="M9037 9049 c-59 -9 -128 -49 -160 -92 -50 -65 -61 -99 -61 -177 0
-64 4 -83 29 -128 52 -95 132 -142 243 -142 153 0 272 118 272 270 0 170 -149
294 -323 269z m118 -60 c59 -16 129 -92 145 -158 18 -78 0 -141 -59 -201 -139
-143 -371 -49 -371 150 0 151 135 250 285 209z"/>
<path d="M9064 8795 c-8 -21 2 -45 19 -45 8 0 20 7 27 15 10 12 10 18 0 30 -7
8 -19 15 -27 15 -7 0 -16 -7 -19 -15z"/>
<path d="M1067 8746 c-91 -34 -163 -109 -187 -196 -36 -128 32 -271 157 -330
100 -47 238 -22 316 58 136 139 98 365 -76 453 -53 28 -157 35 -210 15z m154
-67 c77 -26 131 -91 145 -176 15 -96 -55 -200 -153 -229 -67 -20 -116 -12
-178 27 -81 51 -117 168 -79 257 43 103 159 156 265 121z"/>
<path d="M1134 8485 c-4 -9 -2 -21 4 -27 15 -15 44 -1 40 19 -4 23 -36 29 -44
8z"/>
<path d="M4227 7012 c-23 -25 -22 -33 18 -101 145 -246 178 -585 85 -857 -27
-77 -26 -102 5 -116 35 -16 59 9 84 86 43 130 55 206 54 366 0 209 -28 330
-116 508 -61 125 -94 153 -130 114z"/>
<path d="M2860 6293 c-71 -5 -193 -24 -211 -34 -40 -21 -65 -252 -49 -444 14
-160 31 -249 76 -385 134 -403 428 -643 889 -726 125 -22 425 -25 532 -6 68
13 73 16 82 45 21 66 33 224 27 357 -13 293 -84 536 -215 728 -150 221 -399
373 -715 437 -76 15 -295 36 -346 33 -14 -1 -45 -3 -70 -5z m325 -128 c237
-36 442 -124 588 -255 147 -131 256 -353 303 -615 18 -104 26 -404 11 -457
-10 -36 -43 -42 -232 -42 -245 1 -426 39 -610 129 -265 129 -424 342 -502 674
-20 86 -26 140 -29 291 -3 102 -1 205 3 230 8 43 10 45 48 51 80 12 321 9 420
-6z"/>
<path d="M2805 6141 l-50 -6 -8 -60 c-13 -95 0 -317 27 -445 96 -468 388 -728
888 -790 102 -13 371 -10 385 3 13 14 16 275 3 377 -61 494 -295 771 -745 885
-153 39 -355 53 -500 36z m529 -231 c239 -61 379 -230 417 -503 9 -62 9 -91 1
-99 -20 -20 -32 3 -32 60 0 122 -55 269 -132 357 -89 101 -218 160 -378 173
-53 4 -85 12 -88 20 -6 19 123 15 212 -8z"/>
<path d="M2160 4629 c-19 -5 -86 -10 -148 -12 -87 -2 -115 -6 -123 -17 -15
-24 -6 -54 21 -67 31 -16 152 -17 239 -2 95 16 123 47 81 89 -22 22 -20 22
-70 9z"/>
<path d="M3672 4418 c-16 -16 -15 -53 1 -66 6 -5 53 -13 102 -17 105 -8 220
-28 287 -51 57 -19 86 -12 94 23 10 38 -19 57 -123 82 -171 41 -336 54 -361
29z"/>
<path d="M4112 3008 c-19 -19 -15 -43 23 -118 45 -90 65 -174 65 -280 0 -179
-58 -318 -185 -445 -115 -116 -217 -165 -389 -188 -101 -14 -118 -27 -98 -73
13 -27 13 -27 95 -21 165 12 314 78 438 195 246 232 305 583 146 877 -33 62
-67 81 -95 53z"/>
<path d="M5755 7006 c-34 -34 -110 -197 -139 -297 -64 -224 -61 -457 10 -672
34 -102 51 -120 95 -97 24 13 24 41 0 105 -37 97 -55 214 -54 350 1 188 39
336 128 502 47 86 49 112 9 127 -22 9 -22 9 -49 -18z"/>
<path d="M7030 6294 c-163 -11 -356 -53 -484 -106 -362 -149 -571 -428 -652
-871 -33 -176 -21 -555 19 -594 24 -24 132 -37 312 -37 99 0 214 5 255 12 423
70 703 258 860 577 83 170 122 316 141 538 16 189 -10 426 -50 446 -42 22
-280 43 -401 35z m322 -132 c10 -10 13 -69 13 -230 -1 -198 -3 -226 -27 -327
-45 -192 -108 -329 -208 -453 -142 -176 -382 -298 -675 -343 -88 -14 -358 -17
-417 -6 -33 7 -38 12 -45 45 -14 67 -7 341 12 447 88 509 370 785 890 871 104
17 439 14 457 -4z"/>
<path d="M6955 6139 c-254 -31 -481 -125 -630 -261 -199 -182 -312 -511 -303
-883 1 -79 7 -147 11 -151 14 -14 283 -17 385 -4 539 67 837 364 908 904 17
127 14 370 -4 388 -13 13 -274 18 -367 7z m-37 -231 c-3 -8 -35 -16 -88 -20
-158 -13 -292 -74 -373 -169 -79 -91 -136 -251 -137 -376 0 -40 -4 -53 -15
-53 -22 0 -20 108 4 202 27 107 74 192 143 264 69 72 147 117 250 144 86 22
222 27 216 8z"/>
<path d="M7821 4623 c-26 -17 -27 -45 -3 -66 33 -30 257 -50 315 -28 33 13 44
47 23 70 -14 15 -34 18 -124 19 -59 0 -126 4 -149 10 -33 7 -46 6 -62 -5z"/>
<path d="M6155 4419 c-84 -12 -216 -48 -242 -65 -31 -20 -30 -61 1 -75 18 -9
35 -8 73 5 69 23 184 44 288 52 50 3 96 11 103 17 15 12 16 49 0 65 -14 14
-131 14 -223 1z"/>
<path d="M5860 2990 c-66 -93 -104 -230 -104 -380 0 -136 17 -209 74 -325 72
-148 182 -256 335 -330 135 -65 313 -96 349 -59 31 31 10 74 -37 74 -18 1 -68
7 -112 15 -235 42 -440 234 -500 470 -35 137 -11 334 56 452 33 60 35 75 13
97 -24 24 -50 19 -74 -14z"/>
</g>
</svg>
